<?xml version="1.0" encoding="utf-8"?>
<!-- Generator: Adobe Illustrator 16.0.0, SVG Export Plug-In . SVG Version: 6.00 Build 0)  -->
<!DOCTYPE svg PUBLIC "-//W3C//DTD SVG 1.1//EN" "http://www.w3.org/Graphics/SVG/1.1/DTD/svg11.dtd">
<svg version="1.1" id="Layer_1" xmlns="http://www.w3.org/2000/svg" xmlns:xlink="http://www.w3.org/1999/xlink" x="0px" y="0px"
	 width="692px" height="930px" viewBox="0 0 692 930" enable-background="new 0 0 692 930" xml:space="preserve">
<g>
	<path fill-rule="evenodd" clip-rule="evenodd" fill="none" stroke="#000000" stroke-miterlimit="10" d="M632.649,143.802
		c-2.698,0.007-5.397,0.02-8.096,0.02c-185.719,0.001-371.438,0.001-557.156,0c-1.599,0-3.199-0.013-4.798-0.02
		c0-3.8,0-7.601,0-11.401c1.599-0.007,3.198-0.021,4.798-0.021c185.518-0.001,371.037-0.001,556.555,0
		c2.899,0,5.798,0.013,8.696,0.021C632.649,136.201,632.649,140.001,632.649,143.802z"/>
	<path fill-rule="evenodd" clip-rule="evenodd" fill="none" stroke="#000000" stroke-miterlimit="10" d="M62.6,744.454
		c3.099-0.008,6.197-0.021,9.296-0.021c185.418-0.001,370.837-0.001,556.255,0c1.5,0,2.999,0.013,4.498,0.021c0,3.8,0,7.601,0,11.4
		c-1.699,0.007-3.398,0.021-5.098,0.021c-184.818,0.001-369.638,0.001-554.457,0c-3.499,0-6.997-0.014-10.495-0.021
		C62.6,752.055,62.6,748.254,62.6,744.454z"/>
	<path fill-rule="evenodd" clip-rule="evenodd" fill="none" stroke="#000000" stroke-miterlimit="10" d="M62.6,773.856
		c0-3.8,0-7.601,0-11.401c1.699-0.007,3.398-0.02,5.098-0.02c184.819-0.001,369.638-0.001,554.457,0
		c3.498,0,6.997,0.013,10.495,0.02c0,3.801,0,7.602,0,11.401c-1.699,0.007-3.398,0.02-5.098,0.02
		c-184.818,0.001-369.638,0.001-554.457,0C69.597,773.876,66.099,773.863,62.6,773.856z"/>
	<path fill-rule="evenodd" clip-rule="evenodd" fill="none" stroke="#000000" stroke-miterlimit="10" d="M632.649,780.457
		c0,3.8,0,7.601,0,11.4c-1.599,0.008-3.198,0.021-4.798,0.021c-185.118,0.001-370.237,0.001-555.356,0
		c-3.298,0-6.597-0.013-9.896-0.021c0-3.8,0-7.601,0-11.4c1.699-0.007,3.398-0.021,5.098-0.021
		c184.819-0.001,369.638-0.001,554.457,0C625.652,780.437,629.151,780.45,632.649,780.457z"/>
	<path fill-rule="evenodd" clip-rule="evenodd" fill="none" stroke="#000000" stroke-miterlimit="10" d="M62.6,726.452
		c65.8-0.007,131.6-0.016,197.4-0.016c3.001-0.001,5.181,1.332,6.798,3.923c2.331,3.734,7.405,9.156,7.277-0.326
		c-0.058-4.283,3.261-3.665,6.207-3.644c13.1,0.096,26.2,0.005,39.3,0.069c3.063,0.015,6.127,0.561,9.187,0.531
		c5.564-0.055,11.124-0.412,16.688-0.541c4.021-0.093,8.059-0.223,12.066,0.027c6.795,0.425,13.57,1.147,20.357,1.716
		c1.093,0.091,2.242,0.228,3.291,0c10.194-2.204,20.535-1.694,30.845-1.755c4.077-0.023,5.281,1.184,5.882,5.34
		c0.174,1.209,0.581,2.577,1.353,3.461c1.21,1.386,0.623,1.88-0.678,2.185c-1.131,0.266-2.313,0.434-3.474,0.434
		c-98.8,0.019-197.6,0.019-296.4,0.017c-18.7,0-37.4-0.013-56.1-0.02C62.6,734.053,62.6,730.252,62.6,726.452z"/>
	<path fill-rule="evenodd" clip-rule="evenodd" fill="none" stroke="#000000" stroke-miterlimit="10" d="M62.6,258.412
		c68.777-0.007,137.554-0.014,206.331-0.021c6.216,0,12.433-0.073,18.648,0.017c9.18,0.133,18.358,0.528,27.537,0.539
		c8.06,0.01,16.12-0.36,24.18-0.551c0.797-0.019,1.766-0.248,2.367,0.107c4.918,2.914,10.34,1.055,15.47,1.486
		c7.093,0.597,14.302-0.307,21.462-0.357c4.059-0.029,8.178,0.027,12.152,0.719c1.709,0.297,3.637,2.013,4.539,3.607
		c1.212,2.138-1.108,2.687-2.553,2.808c-6.403,0.534-12.819,0.989-19.24,1.228c-5.21,0.194-10.433-0.012-15.648,0.067
		c-1.858,0.028-3.708,0.439-5.569,0.558c-1.51,0.097-3.031,0.019-4.546,0.018c-2.015-0.001-4.112-0.364-6.024,0.078
		c-2.99,0.691-5.801,1.006-8.951,0.684c-4.395-0.449-8.905,0.375-13.366,0.384c-3.961,0.008-7.922-0.53-11.883-0.522
		c-80.536,0.165-161.071,0.374-241.606,0.572c-1.1,0.002-2.199-0.013-3.298-0.02C62.6,266.012,62.6,262.212,62.6,258.412z"/>
	<path fill-rule="evenodd" clip-rule="evenodd" fill="none" stroke="#000000" stroke-miterlimit="10" d="M632.649,161.803
		c-92.603,0.007-185.205,0.042-277.808-0.086c-3.51-0.005-7.054-1.473-10.496-2.539c-0.711-0.221-1.379-1.673-1.426-2.59
		c-0.036-0.696,0.838-1.567,1.494-2.149c4.383-3.893,9.641-4.136,15.229-4.129c91.002,0.108,182.005,0.085,273.007,0.093
		C632.649,154.203,632.649,158.003,632.649,161.803z"/>
	<path fill-rule="evenodd" clip-rule="evenodd" fill="none" stroke="#000000" stroke-miterlimit="10" d="M62.6,186.405
		c78.587-0.007,157.175-0.028,235.762,0.056c2.049,0.002,4.337,0.75,6.083,1.84c2.197,1.372,4.361,1.436,6.509,0.777
		c8.054-2.472,16.282-3.115,24.623-2.641c1.185,0.067,2.562,0.572,3.448,1.338c2.427,2.097,4.833,3.693,8.185,2.217
		c2.41-1.061,4.561-0.294,6.64,1.015c1.594,1.004,3.13,1.239,4.435-0.544c0.205-0.282,0.657-0.461,1.026-0.534
		c1.346-0.265,2.728-0.692,4.045-0.56c0.429,0.043,1.236,2.082,0.956,2.397c-1.06,1.194-2.388,2.673-3.811,2.919
		c-3.395,0.587-6.95,0.994-10.349,0.622c-4.067-0.445-7.689,0.272-11.329,1.877c-1.122,0.495-2.488,0.634-3.737,0.609
		c-6.862-0.134-13.739-0.151-20.577-0.658c-3.628-0.269-7.422-0.554-10.263-3.75c-0.685-0.771-3.1-0.561-4.452-0.069
		c-3.097,1.128-6.01,2.753-9.042,4.075c-0.779,0.339-1.723,0.417-2.591,0.417c-75.188,0.011-150.375,0.003-225.563-0.004
		C62.6,194.006,62.6,190.206,62.6,186.405z"/>
	<path fill-rule="evenodd" clip-rule="evenodd" fill="none" stroke="#000000" stroke-miterlimit="10" d="M62.6,168.404
		c88.99-0.007,177.979-0.031,266.969,0.09c2.009,0.003,4.311,1.299,5.96,2.631c3.132,2.529,4.193,2.836,7.463,0.36
		c1.818-1.377,3.518-0.797,4.715,0.545c0.359,0.401-0.502,2.812-1.313,3.177c-3.881,1.751-7.855,4.041-11.947,4.396
		c-5.843,0.508-11.815-0.638-17.739-0.792c-2.302-0.061-4.625,0.967-6.938,0.968c-82.39,0.047-164.781,0.032-247.171,0.024
		C62.6,176.004,62.6,172.204,62.6,168.404z"/>
	<path fill-rule="evenodd" clip-rule="evenodd" fill="none" stroke="#000000" stroke-miterlimit="10" d="M632.649,179.805
		c-88.769,0.007-177.537,0.021-266.305-0.006c-3.556-0.001-6.628-1.375-8.929-4.239c-0.623-0.775-1.449-1.384-2.087-2.148
		c-0.699-0.84-1.288-1.771-1.926-2.662c1.314-0.788,2.612-1.608,3.958-2.339c0.309-0.168,0.786-0.028,1.186-0.028
		c91.367,0.007,182.735,0.014,274.103,0.021C632.649,172.204,632.649,176.004,632.649,179.805z"/>
	<path fill-rule="evenodd" clip-rule="evenodd" fill="none" stroke="#000000" stroke-miterlimit="10" d="M62.6,150.402
		c88.576-0.007,177.151-0.035,265.727,0.061c3.363,0.003,6.747,1.122,10.071,1.925c0.731,0.177,1.25,1.229,1.867,1.878
		c-0.605,0.458-1.235,0.888-1.812,1.379c-1.135,0.968-2.607,1.771-3.278,3.002c-1.16,2.13-2.57,3.201-5.049,3.2
		c-89.176-0.037-178.351-0.039-267.527-0.046C62.6,158.003,62.6,154.203,62.6,150.402z"/>
	<path fill-rule="evenodd" clip-rule="evenodd" fill="none" stroke="#000000" stroke-miterlimit="10" d="M62.6,276.413
		c81.403-0.007,162.806-0.03,244.208,0.03c3.821,0.002,7.634,0.912,11.465,1.09c2.448,0.114,4.957-0.68,7.372-0.428
		c1.764,0.184,3.418,1.41,5.122,2.171c-1.264,1.209-2.344,2.753-3.826,3.567c-5.717,3.143-12.047,4.075-18.453,4.36
		c-7.455,0.332-14.92,0.602-22.382,0.605c-74.502,0.036-149.005,0.012-223.507,0.005C62.6,284.014,62.6,280.214,62.6,276.413z"/>
	<path fill-rule="evenodd" clip-rule="evenodd" fill="none" stroke="#000000" stroke-miterlimit="10" d="M632.649,197.807
		c-81.391,0.007-162.78,0.041-244.17-0.031c-6.37-0.006-11.383-3.408-15.571-7.998c-1.207-1.322-0.621-2.87,1.18-3.332
		c0.565-0.145,1.193-0.059,1.793-0.059c85.59,0.005,171.179,0.012,256.769,0.019C632.649,190.206,632.649,194.006,632.649,197.807z"
		/>
	<path fill-rule="evenodd" clip-rule="evenodd" fill="none" stroke="#000000" stroke-miterlimit="10" d="M632.649,215.808
		c-75.774,0.007-151.548,0.034-227.322-0.033c-4.212-0.004-7.94-1.83-11.188-4.654c-1.728-1.501-2.113-3.461-1.252-5.042
		c0.546-1.001,2.641-1.622,4.043-1.625c33.389-0.087,66.777-0.071,100.166-0.068c45.185,0.004,90.369,0.014,135.554,0.021
		C632.649,208.208,632.649,212.007,632.649,215.808z"/>
	<path fill-rule="evenodd" clip-rule="evenodd" fill="none" stroke="#000000" stroke-miterlimit="10" d="M632.649,233.81
		c-72.983,0.007-145.967,0.016-218.95,0.016c-4.097,0-7.41-2.93-7.859-6.992c-0.252-2.276,0.838-3.8,3.067-4.392
		c0.563-0.149,1.193-0.053,1.793-0.053c73.983,0.006,147.966,0.013,221.949,0.02C632.649,226.209,632.649,230.009,632.649,233.81z"
		/>
	<path fill-rule="evenodd" clip-rule="evenodd" fill="none" stroke="#000000" stroke-miterlimit="10" d="M62.6,204.407
		c73.401-0.007,146.802-0.028,220.202,0.077c1.592,0.002,3.754,1.058,4.625,2.326c1.048,1.527-0.248,3.204-1.616,4.614
		c-3.004,3.098-6.391,4.479-10.809,4.472c-70.801-0.102-141.602-0.081-212.402-0.088C62.6,212.007,62.6,208.208,62.6,204.407z"/>
	<path fill-rule="evenodd" clip-rule="evenodd" fill="none" stroke="#000000" stroke-miterlimit="10" d="M632.649,269.813
		c-70.405,0.007-140.811,0.026-211.216-0.047c-1.864-0.002-3.999-0.61-5.528-1.645c-2.579-1.743-5.258-2.036-8.166-1.905
		c-0.987,0.044-2.079,0.125-2.949-0.233c-0.955-0.393-1.709-1.274-2.551-1.942c0.808-0.794,1.48-1.918,2.45-2.313
		c1.87-0.761,3.837-1.304,5.811,0.187c1.594,1.204,3.166,0.906,4.269-0.917c1.104-1.828,2.698-2.627,4.864-2.626
		c71.006,0.03,142.012,0.033,213.017,0.04C632.649,262.212,632.649,266.012,632.649,269.813z"/>
	<path fill-rule="evenodd" clip-rule="evenodd" fill="none" stroke="#000000" stroke-miterlimit="10" d="M632.649,251.811
		c-71.561,0.007-143.122,0.016-214.684,0.016c-4.679,0-8.197-4.663-6.622-8.999c0.365-1.006,1.743-1.693,2.75-2.389
		c0.341-0.235,0.975-0.05,1.474-0.05c72.36,0.006,144.722,0.013,217.082,0.021C632.649,244.21,632.649,248.011,632.649,251.811z"/>
	<path fill-rule="evenodd" clip-rule="evenodd" fill="none" stroke="#000000" stroke-miterlimit="10" d="M62.6,222.409
		c69.76-0.007,139.52-0.011,209.28-0.042c1.717,0,2.985,0.247,3.853,2.032c1.203,2.475,0.255,4.749-1.117,6.281
		c-1.372,1.533-3.777,2.144-5.74,3.139c-0.159,0.081-0.395,0.011-0.594,0.011c-68.561-0.006-137.121-0.014-205.682-0.021
		C62.6,230.009,62.6,226.209,62.6,222.409z"/>
	<path fill-rule="evenodd" clip-rule="evenodd" fill="none" stroke="#000000" stroke-miterlimit="10" d="M266.683,671.685
		c1.377,0,2.755,0,4.133,0c1.827,0,2.968,5.028,2.843,9.47c-0.125,0.889-0.775,1.905-1.167,1.865
		c-1.751-0.182-3.551,0.748-5.277-0.273L266.683,671.685z"/>
	<path fill-rule="evenodd" clip-rule="evenodd" fill="none" stroke="#000000" stroke-miterlimit="10" d="M248.125,672.433
		l0.121,11.378c-61.881,0.065-123.763,0.045-185.645,0.038c0-3.8,0-7.601,0-11.401C124.441,672.441,186.282,672.433,248.125,672.433
		"/>
	<path fill-rule="evenodd" clip-rule="evenodd" fill="none" stroke="#000000" stroke-miterlimit="10" d="M632.649,287.814
		c-64.802,0.007-129.604,0.051-194.405-0.087c-3.313-0.007-6.706-1.349-9.901-2.511c-1.979-0.72-3.747-0.802-5.593-0.123
		c-3.542,1.305-6.064-0.771-8.597-2.602c-0.29-0.21-0.015-2.035,0.458-2.303c1.241-0.703,2.724-1.001,4.132-1.38
		c1.033-0.278,2.284-0.147,3.122-0.688c3.248-2.101,6.83-1.726,10.379-1.725c66.802,0.004,133.604,0.012,200.405,0.019
		C632.649,280.214,632.649,284.014,632.649,287.814z"/>
	<path fill-rule="evenodd" clip-rule="evenodd" fill="none" stroke="#000000" stroke-miterlimit="10" d="M62.6,294.415
		c68.774-0.007,137.548-0.029,206.321,0.067c1.781,0.002,3.841,0.952,5.276,2.085c2.242,1.77,1.753,3.229-0.509,5.149
		c-3.764,3.197-8.032,4.167-12.864,4.163c-66.075-0.069-132.15-0.056-198.225-0.063C62.6,302.015,62.6,298.215,62.6,294.415z"/>
	<path fill-rule="evenodd" clip-rule="evenodd" fill="none" stroke="#000000" stroke-miterlimit="10" d="M62.6,240.41
		c67.961-0.007,135.922-0.015,203.883-0.018c2.774,0,4.771,1.615,4.954,3.947c0.309,3.971-1.602,7.053-4.655,7.471
		c-0.491,0.067-0.999,0.021-1.498,0.021c-67.562-0.006-135.123-0.013-202.684-0.021C62.6,248.011,62.6,244.21,62.6,240.41z"/>
	<path fill-rule="evenodd" clip-rule="evenodd" fill="none" stroke="#000000" stroke-miterlimit="10" d="M62.6,546.437
		c56.573-0.007,113.146-0.014,169.718-0.021c10.119-0.001,20.239,0.088,30.356-0.042c4.27-0.055,7.414,2.409,10.79,4.3
		c1.79,1.002,0.762,2.193-0.556,3.131c-3.546,2.522-7.556,3.992-11.804,3.997c-66.168,0.074-132.336,0.043-198.504,0.036
		C62.6,554.037,62.6,550.236,62.6,546.437z"/>
	<path fill-rule="evenodd" clip-rule="evenodd" fill="none" stroke="#000000" stroke-miterlimit="10" d="M632.649,737.854
		c-68.993,0.007-137.987,0.015-206.981,0.011c-0.781,0-1.604-0.02-2.335-0.256c-1.44-0.463-2.222-1.006-0.696-2.583
		c2.287-2.364,4.179-5.111,6.455-7.488c0.69-0.722,2.098-1.062,3.176-1.063c66.794-0.041,133.588-0.029,200.382-0.022
		C632.649,730.252,632.649,734.053,632.649,737.854z"/>
	<path fill-rule="evenodd" clip-rule="evenodd" fill="none" stroke="#000000" stroke-miterlimit="10" d="M62.6,564.438
		c65.992-0.007,131.984-0.046,197.976,0.085c2.903,0.005,5.892,1.338,8.678,2.459c2.035,0.818,2.251,3.124,0.643,4.651
		c-0.824,0.782-1.909,1.387-2.981,1.796c-4.642,1.77-9.403,2.505-14.438,2.497c-63.292-0.108-126.584-0.081-189.877-0.088
		C62.6,572.039,62.6,568.238,62.6,564.438z"/>
	<path fill-rule="evenodd" clip-rule="evenodd" fill="none" stroke="#000000" stroke-miterlimit="10" d="M62.6,600.441
		c63.381-0.007,126.762-0.074,190.143,0.096c4.974,0.014,10.118,0.926,14.474,4.167c0.94,0.7,2.809,0.082,4.235,0.224
		c1.18,0.117,2.394,0.33,3.465,0.796c0.276,0.12,0.362,1.756,0.032,1.993c-1.043,0.748-2.461,1.803-3.488,1.584
		c-2.915-0.621-5.474-0.229-8.347,0.553c-4.319,1.174-8.899,1.922-13.37,1.929c-62.381,0.112-124.763,0.067-187.144,0.06
		C62.6,608.042,62.6,604.241,62.6,600.441z"/>
	<path fill-rule="evenodd" clip-rule="evenodd" fill="none" stroke="#000000" stroke-miterlimit="10" d="M62.6,618.443
		c62.369-0.008,124.737-0.059,187.105,0.063c4.971,0.01,9.965,1.074,14.9,1.93c3.201,0.556,3.788,3.891,5.354,6.119
		c0.082,0.117-1.355,1.852-2.22,1.991c-3.785,0.609-7.62,1.262-11.437,1.266c-64.567,0.066-129.135,0.038-193.702,0.031
		C62.6,626.044,62.6,622.243,62.6,618.443z"/>
	<path fill-rule="evenodd" clip-rule="evenodd" fill="none" stroke="#000000" stroke-miterlimit="10" d="M62.6,582.439
		c64.374-0.007,128.747-0.024,193.12,0.006c3.938,0.002,7.113,2.095,9.842,4.702c1.57,1.5,1.164,2.794-0.979,3.744
		c-5.042,2.236-10.188,3.073-15.761,3.06c-62.074-0.149-124.148-0.104-186.223-0.11C62.6,590.041,62.6,586.24,62.6,582.439z"/>
	<path fill-rule="evenodd" clip-rule="evenodd" fill="none" stroke="#000000" stroke-miterlimit="10" d="M632.649,719.852
		c-65.567,0.007-131.134,0.016-196.701,0.017c-3.179,0-4.272-1.066-3.678-4.171c0.666-3.476,3.287-7.329,7.875-7.323
		c64.168,0.089,128.336,0.069,192.504,0.076C632.649,712.251,632.649,716.052,632.649,719.852z"/>
	<path fill-rule="evenodd" clip-rule="evenodd" fill="none" stroke="#000000" stroke-miterlimit="10" d="M62.6,708.45
		c63.762-0.007,127.524-0.016,191.286-0.016c4.521,0,2.238,0.348,4.989,7.065c0.99,2.417,3.013,4.3,0.4,4.406
		c-0.299,0.013-2.091-0.033-2.391-0.033c-64.761-0.008-129.523-0.015-194.284-0.021C62.6,716.052,62.6,712.251,62.6,708.45z"/>
	<path fill-rule="evenodd" clip-rule="evenodd" fill="none" stroke="#000000" stroke-miterlimit="10" d="M63.6,636.444
		c63.358-0.007,124.717-0.016,188.076-0.017c3.902,0,0.922,2.268,0.736,5.058c-0.043,0.642-0.22,1.622-0.643,1.835
		c-3.187,1.601-0.445,4.342-3.691,4.354c-62.158,0.252-122.318,0.178-184.477,0.171C63.6,644.045,63.6,640.244,63.6,636.444z"/>
	<path fill-rule="evenodd" clip-rule="evenodd" fill="none" stroke="#000000" stroke-miterlimit="10" d="M632.649,701.85
		c-63.563,0.008-127.124,0.017-190.687,0.017c-3.996,0-5.336-2.888-3.496-7.736c0.895-2.355,2.457-3.743,5.295-3.74
		c62.963,0.057,125.925,0.053,188.888,0.06C632.649,694.249,632.649,698.05,632.649,701.85z"/>
	<path fill-rule="evenodd" clip-rule="evenodd" fill="none" stroke="#000000" stroke-miterlimit="10" d="M62.6,690.449
		c62.56-0.007,125.12-0.017,187.679-0.016c1.221-0.031,1.221-0.031,2.524,6.564c0.255,1.293,1.966,3.99,0.75,4.825
		c-0.342,0.234-0.975,0.048-1.475,0.048c-63.16-0.007-126.319-0.014-189.479-0.021C62.6,698.05,62.6,694.249,62.6,690.449z"/>
	<path fill-rule="evenodd" clip-rule="evenodd" fill="none" stroke="#000000" stroke-miterlimit="10" d="M62.842,654.446
		c62.386-0.007,121.688-0.034,184.074,0.022c4.39,0.004,2.333-0.035,2.333,6.031c0.333,5.042,2.104,4.856-1.46,5.361
		c-0.491,0.069-0.999,0.025-1.498,0.025c-62.386-0.006-121.063-0.033-183.449-0.04C62.842,662.047,62.842,658.246,62.842,654.446z"
		/>
	<path fill-rule="evenodd" clip-rule="evenodd" fill="none" stroke="#000000" stroke-miterlimit="10" d="M632.649,683.849
		c-62.593,0.007-125.186,0.016-187.777,0.016c-3.157,0-4.229-1.114-4.259-4.301c-0.008-0.8-0.032-1.601,0.005-2.398
		c0.141-2.991,1.906-4.734,4.854-4.734c62.393,0.002,124.785,0.01,187.178,0.017C632.649,676.248,632.649,680.049,632.649,683.849z"
		/>
	<path fill-rule="evenodd" clip-rule="evenodd" fill="none" stroke="#000000" stroke-miterlimit="10" d="M632.649,665.847
		c-62.19,0.007-124.382,0.017-186.573,0.016c-3.675,0-4.783-1.198-4.864-5.095c-0.087-4.209,1.44-6.2,4.865-6.341
		c0.199-0.009,0.399-0.002,0.6-0.002c61.991,0.007,123.981,0.015,185.973,0.021C632.649,658.246,632.649,662.047,632.649,665.847z"
		/>
	<path fill-rule="evenodd" clip-rule="evenodd" fill="none" stroke="#000000" stroke-miterlimit="10" d="M632.649,629.844
		c-61.56,0.007-123.118,0.054-184.678-0.098c-3.068-0.007-6.214-1.534-9.163-2.745c-1.414-0.58-1.957-2.062-0.044-3.168
		c2.291-1.324,4.485-2.849,6.873-3.962c1.645-0.768,3.545-1.389,5.332-1.391c60.56-0.063,121.12-0.045,181.68-0.037
		C632.649,622.243,632.649,626.044,632.649,629.844z"/>
	<path fill-rule="evenodd" clip-rule="evenodd" fill="none" stroke="#000000" stroke-miterlimit="10" d="M632.649,647.846
		c-61.782,0.007-123.565,0.016-185.347,0.016c-3.409,0-4.907-1.521-4.889-4.856c0.02-3.75,2.034-6.462,4.889-6.58
		c0.199-0.008,0.399-0.001,0.6-0.001c61.582,0.007,123.164,0.014,184.747,0.021C632.649,640.244,632.649,644.045,632.649,647.846z"
		/>
	<path fill-rule="evenodd" clip-rule="evenodd" fill="none" stroke="#000000" stroke-miterlimit="10" d="M632.649,305.816
		c-41.201,0.007-82.403,0.033-123.604-0.055c-1.504-0.003-3.222-0.836-4.459-1.782c-2.055-1.573-3.791-1.579-5.902-0.198
		c-2.25,1.471-4.711,2.152-7.543,2.12c-12.899-0.146-25.801,0.007-38.701-0.105c-4.096-0.036-8.176-0.926-10.887-4.294
		c-1.012-1.258-1.508-3.524-1.175-5.106c0.341-1.618,2.253-2.05,4.164-2.048c62.702,0.064,125.405,0.061,188.107,0.068
		C632.649,298.215,632.649,302.015,632.649,305.816z"/>
	<path fill-rule="evenodd" clip-rule="evenodd" fill="none" stroke="#000000" stroke-miterlimit="10" d="M632.649,611.842
		c-59.771,0.008-119.542,0.017-179.313,0.017c-4.1,0-7.436-3.514-7.32-7.625c0.059-2.076,1.222-3.261,3.129-3.763
		c0.563-0.148,1.193-0.049,1.793-0.049c60.57,0.006,121.142,0.013,181.712,0.02C632.649,604.241,632.649,608.042,632.649,611.842z"
		/>
	<path fill-rule="evenodd" clip-rule="evenodd" fill="none" stroke="#000000" stroke-miterlimit="10" d="M632.649,593.841
		c-60.191,0.007-120.383,0.016-180.574,0.015c-3.454,0-4.277-1.45-3.13-4.722c0.915-2.605,1.32-5.513,4.849-5.764
		c1.412-0.101,3.129-0.304,4.22,0.352c2.394,1.441,4.429,0.909,6.682-0.083c1.316-0.58,2.78-1.169,4.178-1.17
		c54.592-0.052,109.184-0.036,163.776-0.029C632.649,586.24,632.649,590.041,632.649,593.841z"/>
	<path fill-rule="evenodd" clip-rule="evenodd" fill="none" stroke="#000000" stroke-miterlimit="10" d="M62.6,528.436
		c53.792-0.008,107.583-0.041,161.375,0.03c4.281,0.006,8.096,1.59,10.347,5.665c1.465,2.652,0.409,5.035-2.553,5.67
		c-0.576,0.124-1.195,0.055-1.794,0.055c-55.792-0.006-111.583-0.013-167.374-0.02C62.6,536.036,62.6,532.235,62.6,528.436z"/>
	<path fill-rule="evenodd" clip-rule="evenodd" fill="none" stroke="#000000" stroke-miterlimit="10" d="M632.649,575.839
		c-53.401,0.007-106.803-0.001-160.204,0.064c-2.901,0.004-4.31-1.631-4.753-3.91c-0.258-1.326,0.338-3.586,1.33-4.235
		c2.288-1.499,5.049-3.195,7.624-3.204c52.001-0.175,104.002-0.122,156.003-0.115C632.649,568.238,632.649,572.039,632.649,575.839z
		"/>
	<path fill-rule="evenodd" clip-rule="evenodd" fill="none" stroke="#000000" stroke-miterlimit="10" d="M62.6,510.434
		c50.365-0.007,100.73-0.086,151.095,0.121c3.836,0.016,7.666,2.04,11.494,3.146c2.106,0.608,0.905,1.96,0.65,3.073
		c-0.824,3.602-2.589,5.078-6.148,5.078c-52.364-0.001-104.728-0.01-157.091-0.018C62.6,518.034,62.6,514.233,62.6,510.434z"/>
	<path fill-rule="evenodd" clip-rule="evenodd" fill="none" stroke="#000000" stroke-miterlimit="10" d="M632.649,557.838
		c-49.97,0.007-99.939-0.003-149.909,0.068c-2.636,0.004-3.988-1.163-4.265-3.471c-0.326-2.723-1.508-1.548-2.677-0.813
		c-0.331,0.207-0.543,0.73-0.871,0.793c-1.125,0.218-2.276,0.296-3.418,0.427c-0.142-1.449-0.922-3.392-0.274-4.232
		c0.938-1.216,2.838-2.051,4.45-2.33c21.743-3.77,43.676-1.362,65.521-1.773c21.979-0.412,43.972-0.092,65.958-0.089
		c8.495,0.001,16.989,0.013,25.484,0.02C632.649,550.236,632.649,554.037,632.649,557.838z"/>
	<path fill-rule="evenodd" clip-rule="evenodd" fill="none" stroke="#000000" stroke-miterlimit="10" d="M62.6,492.432
		c47.594-0.007,95.188-0.027,142.781,0.028c2.014,0.003,4.029,0.716,6.04,1.117c2.012,0.4,4.058,0.696,6.014,1.287
		c1.163,0.352,2.18,1.184,3.263,1.799c-0.559,0.962-0.923,2.139-1.71,2.848c-3.245,2.922-6.979,4.401-11.506,4.394
		c-48.293-0.088-96.587-0.064-144.881-0.071C62.6,500.033,62.6,496.232,62.6,492.432z"/>
	<path fill-rule="evenodd" clip-rule="evenodd" fill="none" stroke="#000000" stroke-miterlimit="10" d="M632.649,539.836
		c-47.381,0.007-94.762,0.058-142.142-0.078c-3.115-0.009-6.222-1.452-9.342-2.192c-1.989-0.472-4.021-0.785-5.979-1.356
		c-0.79-0.229-1.433-0.962-2.144-1.465c0.606-0.51,1.134-1.248,1.833-1.491c3.304-1.15,6.599-2.431,10.005-3.159
		c3.916-0.837,7.943-1.601,11.924-1.609c45.282-0.104,90.563-0.057,135.845-0.049C632.649,532.235,632.649,536.036,632.649,539.836z
		"/>
	<path fill-rule="evenodd" clip-rule="evenodd" fill="none" stroke="#000000" stroke-miterlimit="10" d="M62.6,474.431
		c45.595-0.007,91.19-0.12,136.784,0.173c3.797,0.024,7.655,2.631,11.302,4.411c0.79,0.386,1.379,2.608,1.005,3.577
		c-0.433,1.119-1.94,2.338-3.146,2.542c-3.105,0.525-6.301,0.69-9.46,0.692c-45.495,0.031-90.99,0.012-136.485,0.005
		C62.6,482.031,62.6,478.23,62.6,474.431z"/>
	<path fill-rule="evenodd" clip-rule="evenodd" fill="none" stroke="#000000" stroke-miterlimit="10" d="M632.649,521.834
		c-44.798,0.008-89.596,0.112-134.393-0.114c-5.079-0.025-10.155-1.888-15.216-2.979c-0.581-0.125-1.051-0.765-1.572-1.166
		c0.451-0.554,0.799-1.412,1.373-1.611c4.396-1.522,8.774-3.915,13.273-4.196c45.38-2.832,90.821-0.728,136.234-1.341
		c0.1-0.001,0.199,0.005,0.3,0.007C632.649,514.233,632.649,518.034,632.649,521.834z"/>
	<path fill-rule="evenodd" clip-rule="evenodd" fill="none" stroke="#000000" stroke-miterlimit="10" d="M62.6,330.418
		c44.984-0.007,89.968-0.019,134.952-0.014c4.74,0,8.781,4.229,8.498,8.694c-0.117,1.843-0.958,2.741-2.798,2.74
		c-10.996-0.003-22.001,0.253-32.982-0.153c-3.459-0.128-6.871-0.843-10.439-0.566c-2.764,0.215-5.729-0.281-8.396-1.121
		c-4.075-1.285-7.77,0.509-11.642,0.707c-2.224,0.113-4.459,0.01-6.685,0.1c-1.954,0.079-3.903,0.278-5.853,0.449
		c-2.06,0.18-4.117,0.556-6.176,0.56c-19.493,0.037-38.986,0.012-58.479,0.005C62.6,338.019,62.6,334.218,62.6,330.418z"/>
	<path fill-rule="evenodd" clip-rule="evenodd" fill="none" stroke="#000000" stroke-miterlimit="10" d="M62.6,312.417
		c42.778-0.007,85.556-0.018,128.334-0.015c4.335,0,7.677,3.216,7.868,7.6c0.091,2.085-1.175,3.268-3.077,3.784
		c-0.561,0.152-1.193,0.052-1.792,0.052c-43.778-0.005-87.555-0.013-131.333-0.02C62.6,320.017,62.6,316.217,62.6,312.417z"/>
	<path fill-rule="evenodd" clip-rule="evenodd" fill="none" stroke="#000000" stroke-miterlimit="10" d="M62.6,366.421
		c21.192-0.007,42.384-0.025,63.575,0.005c1.359,0.002,2.712,0.473,4.079,0.556c7.131,0.437,14.298,0.52,21.386,1.318
		c5.21,0.587,10.66-0.109,15.605,2.625c1.581,0.874,3.6,0.623,5.122-1.119c2.181-2.497,4.915-3.556,8.399-3.479
		c9.691,0.211,19.391,0.067,29.087,0.076c4.366,0.004,6.603,1.78,7.523,5.922c0.677,3.044-1.217,5.458-4.396,5.507
		c-3.198,0.048-6.772,0.938-9.522-0.173c-6.752-2.729-13.13-0.416-19.649,0.204c-3.566,0.34-6.347-0.9-8.675-3.553
		c-1.709-1.947-3.194-3.904-6.167-0.968c-1.336,1.32-4.245,1.126-6.464,1.456c-3.304,0.491-6.622,0.93-9.949,1.219
		c-3.569,0.311-7.167,0.3-10.731,0.644c-26.378,2.541-52.818,0.563-79.222,1.16C62.6,374.021,62.6,370.222,62.6,366.421z"/>
	<path fill-rule="evenodd" clip-rule="evenodd" fill="none" stroke="#000000" stroke-miterlimit="10" d="M62.6,456.429
		c39.999-0.007,79.999-0.092,119.998,0.079c4.983,0.021,10.501-0.034,14.042,4.701c0.975,1.305,1.36,3.05,2.016,4.593
		c-1.653,0.684-3.304,1.96-4.958,1.963c-43.699,0.103-87.398,0.073-131.098,0.066C62.6,464.029,62.6,460.229,62.6,456.429z"/>
	<path fill-rule="evenodd" clip-rule="evenodd" fill="none" stroke="#000000" stroke-miterlimit="10" d="M632.649,323.817
		c-42.786,0.007-85.572,0.008-128.357,0.037c-2.274,0.001-4.507-0.511-4.887-2.858c-0.247-1.528,0.598-3.505,1.528-4.896
		c1.876-2.802,4.573-3.805,8.157-3.792c41.186,0.144,82.372,0.101,123.559,0.108C632.649,316.217,632.649,320.017,632.649,323.817z"
		/>
	<path fill-rule="evenodd" clip-rule="evenodd" fill="none" stroke="#000000" stroke-miterlimit="10" d="M62.6,348.419
		c19.396-0.007,38.792-0.067,58.188,0.033c3.106,0.016,6.3,1.414,9.295,1.007c6.273-0.851,11.974,1.282,17.915,2.262
		c3.487,0.575,6.963,1.628,10.651-0.415c1.833-1.015,4.64-0.232,7.002-0.345c1.067-0.051,2.357,0.031,3.142-0.521
		c2.3-1.62,4.704-2.135,7.501-2.097c9.896,0.136,19.795,0.042,29.693,0.059c3.669,0.006,7.631,3.66,7.775,7.104
		c0.091,2.175-1.9,4.289-4.409,4.303c-11.197,0.063-22.442,0.619-33.57-0.267c-4.392-0.35-8.753-2.188-13.405-1.586
		c-0.66,0.085-1.426-0.584-2.133-0.925c-2.056-0.99-3.876-1.515-6.352-0.435c-1.938,0.845-4.534,0.15-6.836,0.198
		c-1.692,0.035-3.846-0.461-4.976,0.38c-2.392,1.779-4.862,1.368-7.399,1.431c-2.804,0.07-5.613,0.105-8.407,0.324
		c-2.139,0.167-4.258,0.861-6.387,0.868c-19.096,0.063-38.192,0.027-57.288,0.02C62.6,356.02,62.6,352.22,62.6,348.419z"/>
	<path fill-rule="evenodd" clip-rule="evenodd" fill="none" stroke="#000000" stroke-miterlimit="10" d="M632.649,341.819
		c-18.201,0.007-36.401,0.026-54.602-0.005c-1.26-0.002-2.522-0.567-3.776-0.535c-3.875,0.1-7.747,0.345-11.619,0.565
		c-5.305,0.301-10.315-0.581-15.319-2.57c-2.153-0.855-5.215-0.494-7.521,0.307c-7.012,2.436-14.186,1.436-21.127,0.786
		c-4.744-0.444-9.464-1.758-14.329-1.511c-1.966,0.1-3.925,0.547-5.884,0.529c-1.65-0.015-3.37-0.388-3.815-2.451
		c-0.43-1.992,0.255-3.667,2.031-4.525c1.818-0.879,3.829-1.923,5.757-1.928c43.401-0.102,86.803-0.07,130.204-0.063
		C632.649,334.218,632.649,338.019,632.649,341.819z"/>
	<path fill-rule="evenodd" clip-rule="evenodd" fill="none" stroke="#000000" stroke-miterlimit="10" d="M62.6,438.427
		c37.801-0.007,75.603-0.018,113.405-0.015c3.835,0,8.821,3.271,9.928,6.832c0.273,0.878-0.498,2.69-1.315,3.164
		c-1.459,0.846-3.319,1.382-5.013,1.385c-39.001,0.066-78.003,0.042-117.005,0.035C62.6,446.028,62.6,442.228,62.6,438.427z"/>
	<path fill-rule="evenodd" clip-rule="evenodd" fill="none" stroke="#000000" stroke-miterlimit="10" d="M632.649,503.833
		c-39.198,0.007-78.396,0.033-117.593-0.062c-1.343-0.004-3.091-0.926-3.875-1.99c-0.492-0.669,0.193-2.564,0.82-3.633
		c2.266-3.86,5.653-5.771,10.254-5.764c36.798,0.055,73.596,0.04,110.394,0.047C632.649,496.232,632.649,500.033,632.649,503.833z"
		/>
	<path fill-rule="evenodd" clip-rule="evenodd" fill="none" stroke="#000000" stroke-miterlimit="10" d="M62.6,420.426
		c36.375-0.007,72.751-0.023,109.126,0.011c1.545,0.001,3.161,0.265,4.621,0.766c2.605,0.894,3.355,2.966,3.338,5.636
		c-0.016,2.451-0.826,4.002-3.297,4.49c-0.952,0.188-1.908,0.497-2.863,0.497c-36.975,0.018-73.95,0.007-110.925,0
		C62.6,428.026,62.6,424.226,62.6,420.426z"/>
	<path fill-rule="evenodd" clip-rule="evenodd" fill="none" stroke="#000000" stroke-miterlimit="10" d="M62.6,402.424
		c30.575-0.007,61.154-0.255,91.724,0.181c6.169,0.088,12.401-0.158,18.574,0.432c2.947,0.282,5.294,2.741,5.481,5.595
		c0.139,2.117-1.046,3.631-2.987,4.276c-1.558,0.518-3.247,0.899-4.878,0.901c-35.971,0.043-71.942,0.024-107.913,0.017
		C62.6,410.025,62.6,406.224,62.6,402.424z"/>
	<path fill-rule="evenodd" clip-rule="evenodd" fill="none" stroke="#000000" stroke-miterlimit="10" d="M632.649,485.831
		c-35.563,0.007-71.126,0.03-106.689-0.042c-1.277-0.003-3.306-0.646-3.651-1.518c-0.506-1.281-0.201-3.23,0.449-4.557
		c1.822-3.716,5.205-5.278,9.196-5.283c33.565-0.032,67.13-0.008,100.695-0.001C632.649,478.23,632.649,482.031,632.649,485.831z"/>
	<path fill-rule="evenodd" clip-rule="evenodd" fill="none" stroke="#000000" stroke-miterlimit="10" d="M62.6,384.422
		c25.376-0.007,50.754-0.118,76.129,0.098c3.606,0.03,7.194,1.669,10.8,2.523c0.854,0.202,1.835,0.539,2.61,0.31
		c6.14-1.812,12.366,0.03,18.523-0.555c1.861-0.177,3.716-0.425,5.579-0.587c1.642-0.143,3.751-0.111,3.787,1.821
		c0.03,1.582-0.947,3.98-2.195,4.623c-2.622,1.348-5.68,2.229-8.625,2.458c-2.76,0.214-5.637-0.508-8.406-1.089
		c-4.043-0.85-7.961-1.007-11.883,0.603c-1.51,0.62-3.19,1.164-4.794,1.167c-27.175,0.064-54.35,0.037-81.525,0.03
		C62.6,392.023,62.6,388.223,62.6,384.422z"/>
	<path fill-rule="evenodd" clip-rule="evenodd" fill="none" stroke="#000000" stroke-miterlimit="10" d="M632.649,467.83
		c-32.176,0.007-64.351,0.026-96.525-0.033c-1.142-0.002-2.909-0.507-3.269-1.289c-0.47-1.025-0.243-2.834,0.409-3.829
		c2.544-3.878,6.074-6.282,10.953-6.279c29.478,0.022,58.954,0.022,88.432,0.029C632.649,460.229,632.649,464.029,632.649,467.83z"
		/>
	<path fill-rule="evenodd" clip-rule="evenodd" fill="none" stroke="#000000" stroke-miterlimit="10" d="M632.649,359.82
		c-14.992,0.007-29.985,0.043-44.977,0.004c-4.811-0.013-8.289-3.342-12.21-5.426c-2.073-1.102-3.003-1.236-3.972,0.991
		c-1.411,3.248-4.095,4.506-7.539,4.462c-3.497-0.045-6.999-0.107-10.493,0.02c-3.032,0.109-5.779-0.426-8.581-1.746
		c-1.751-0.825-4.045-0.506-6.097-0.682c-2.955-0.253-5.703-0.924-7.017-3.979c-0.314-0.73-0.197-1.647-0.278-2.478
		c0.89-0.079,1.805-0.334,2.663-0.207c5.14,0.763,10.163,1.292,15.162-1.092c2.029-0.967,4.544-1.09,6.86-1.24
		c3.086-0.199,6.215-0.262,9.285,0.033c1.759,0.169,3.502,1.038,5.133,1.835c1.023,0.501,1.932,2.174,2.707,2.061
		c1.874-0.273,3.967-0.902,5.369-2.096c1.864-1.586,3.763-1.908,6.008-1.902c15.992,0.043,31.984,0.034,47.976,0.041
		C632.649,352.22,632.649,356.02,632.649,359.82z"/>
	<path fill-rule="evenodd" clip-rule="evenodd" fill="none" stroke="#000000" stroke-miterlimit="10" d="M632.649,449.828
		c-27.385,0.007-54.769,0.029-82.153-0.034c-1.135-0.003-2.801-0.517-3.252-1.329c-0.451-0.813,0.037-2.45,0.59-3.467
		c2.551-4.703,6.273-6.778,11.958-6.711c24.283,0.287,48.571,0.133,72.857,0.14C632.649,442.228,632.649,446.028,632.649,449.828z"
		/>
	<path fill-rule="evenodd" clip-rule="evenodd" fill="none" stroke="#000000" stroke-miterlimit="10" d="M632.649,431.827
		c-23.392,0.007-46.782,0.019-70.174,0.015c-3.155,0-3.884-1.151-2.479-4.065c2.243-4.656,5.45-7.508,11.178-7.451
		c20.49,0.207,40.983,0.092,61.476,0.1C632.649,424.226,632.649,428.026,632.649,431.827z"/>
	<path fill-rule="evenodd" clip-rule="evenodd" fill="none" stroke="#000000" stroke-miterlimit="10" d="M632.649,413.825
		c-19.188,0.007-38.376,0.021-57.563,0.015c-3.509,0-4.617-1.799-2.992-4.976c2.108-4.123,5.578-6.406,10.188-6.427
		c16.789-0.078,33.578-0.02,50.368-0.012C632.649,406.224,632.649,410.025,632.649,413.825z"/>
	<path fill-rule="evenodd" clip-rule="evenodd" fill="none" stroke="#000000" stroke-miterlimit="10" d="M632.649,395.824
		c-14.466,0.007-28.932-0.024-43.397,0.055c-2.664,0.015-5.236-0.692-5.46-3.316c-0.155-1.83,1.284-4.171,2.677-5.665
		c1.907-2.047,4.621-2.59,7.572-2.557c12.868,0.147,25.739,0.074,38.608,0.081C632.649,388.223,632.649,392.023,632.649,395.824z"/>
	<path fill-rule="evenodd" clip-rule="evenodd" fill="none" stroke="#000000" stroke-miterlimit="10" d="M632.649,377.822
		c-13.2,0.007-26.404-0.139-39.6,0.126c-3.404,0.068-6.786-4.32-6.616-7.285c0.15-2.616,2.206-4.256,5.414-4.257
		c13.601-0.006,27.201,0.008,40.802,0.015C632.649,370.222,632.649,374.021,632.649,377.822z"/>
	<path fill-rule="evenodd" clip-rule="evenodd" fill="none" stroke="#000000" stroke-miterlimit="10" d="M382.768,540.384
		c-4.787-0.567-9.563-1.33-14.368-1.612c-2.182-0.129-4.411,0.967-6.633,1.031c-5.591,0.163-11.209,0.347-16.781-0.021
		c-6.664-0.439-13.277-1.637-19.941-2.123c-3.632-0.266-7.335,0.117-10.981,0.469c-4.488,0.434-8.938,1.373-13.428,1.6
		c-1.53,0.076-3.636-0.95-4.592-2.169c-1.476-1.88-2.113-1.047-3.458-0.06c-2.15,1.576-4.543,2.773-7.412,2.363
		c-2.737-0.391-4.288-2.877-3.298-5.403c1.271-3.245,5.663-6.259,9.141-5.981c1.275,0.102,2.459,1.053,3.746,1.365
		c1.199,0.291,2.661,0.689,3.688,0.267c2.672-1.098,5.1-2.09,8.193-1.239c1.865,0.513,4.081-0.412,6.142-0.428
		c8.093-0.066,16.188-0.027,24.283-0.027c17.503,0,35.008,0.095,52.51-0.051c6.18-0.052,7.601,4.099,7.229,8.692
		c-0.162,2.012-1.546,2.834-3.486,2.8c-0.1-0.001-0.2,0.001-0.3,0.001c-3.397,0-6.796,0-10.193,0
		C382.808,540.032,382.787,540.208,382.768,540.384z"/>
	<path fill-rule="evenodd" clip-rule="evenodd" fill="none" stroke="#000000" stroke-miterlimit="10" d="M378.308,557.858
		c-4.699,0-9.404,0.121-14.097-0.057c-2.009-0.075-3.984-0.827-5.993-1.162c-0.991-0.165-2.208-0.447-3.007-0.047
		c-3.599,1.805-7.22,1.223-10.998,0.845c-6.99-0.698-14.049-1.464-21.035-1.169c-3.905,0.166-7.778,2.039-11.899,1.59
		c-2.156-0.235-4.36-0.266-6.455-0.762c-2.302-0.544-4.273-1.63-5.566-3.959c-1.274-2.298-2.088-2.126-3.317,0.154
		c-1.643,3.047-8.921,5.461-12.044,3.91c-2.021-1.002-4.038-2.058-5.897-3.322c-0.968-0.659-2.253-1.863-2.201-2.751
		c0.064-1.094,1.148-2.503,2.183-3.099c3.907-2.252,8.058-2.262,12.214-0.573c1.001,0.407,1.972,0.887,2.954,1.338
		c2.554,1.171,4.746,1.175,7.171-0.812c2.406-1.971,5.501-2.197,8.247-0.34c2.489,1.685,4.953,1.235,7.62,0.706
		c1.849-0.367,3.875,0.151,5.719-0.229c4.474-0.923,8.961-0.126,13.319-0.336c6.729-0.324,13.387-1.947,20.237-0.843
		c1.489,0.24,3.122-0.564,4.664-0.474c2.533,0.148,5.043,0.667,7.569,0.967c1.081,0.127,2.271,0.394,3.256,0.093
		c7.929-2.425,16.029-0.585,24.031-1.041c2.367-0.135,4.416,3.686,4.266,7.206c-0.104,2.438-2.023,4.15-4.742,4.159
		C389.106,557.871,383.707,557.858,378.308,557.858z"/>
	<path fill-rule="evenodd" clip-rule="evenodd" fill="none" stroke="#000000" stroke-miterlimit="10" d="M312.981,240.389
		c8.412,0,16.822,0,25.234,0c3.518,0,7.059-0.241,10.546,0.091c2.061,0.197,3.995,1.479,6.061,1.944
		c1.719,0.386,3.544,0.345,5.323,0.396c1.809,0.052,3.622,0.021,5.431-0.038c5.559-0.181,11.116-0.548,16.673-0.538
		c3.596,0.007,6.95,1.21,9.635,3.75c0.549,0.519,1.217,1.824,1.019,2.046c-0.584,0.656-1.54,1.227-2.411,1.33
		c-1.674,0.2-3.39,0.053-5.088,0.054c-1.916,0-3.938-0.396-5.729,0.078c-7.859,2.082-15.84,0.68-23.745,1.154
		c-1.943,0.117-3.871,0.539-5.803,0.838c-0.482,0.075-0.953,0.315-1.43,0.316c-7.912,0.022-15.826,0.121-23.735-0.034
		c-2.928-0.058-5.843-1.034-8.765-1.039c-3.936-0.006-7.869,0.626-11.811,0.793c-4.574,0.193-9.167,0.37-13.73,0.132
		c-1.253-0.065-2.976-1.394-3.509-2.581c-0.82-1.823,0.938-2.861,2.313-3.94c4.468-3.505,9.554-4.846,15.129-4.76
		C307.385,240.424,310.184,240.389,312.981,240.389z"/>
	<path fill-rule="evenodd" clip-rule="evenodd" fill="none" stroke="#000000" stroke-miterlimit="10" d="M248.287,341.84
		c-9.987,0-19.974,0.001-29.961,0c-4.375,0-8.184-3.321-8.723-7.599c-0.26-2.057,1.247-3.774,3.503-3.826
		c2.895-0.066,5.792-0.018,8.688-0.018c17.777,0,35.554-0.076,53.33,0.059c3.928,0.03,7.771,0.984,10.787,3.92
		c1.594,1.553,1.66,3.008,0.08,4.616c-1.813,1.844-3.856,2.896-6.545,2.877C269.06,341.797,258.673,341.84,248.287,341.84z"/>
	<path fill-rule="evenodd" clip-rule="evenodd" fill="none" stroke="#000000" stroke-miterlimit="10" d="M256.589,384.401
		c6.599,0,13.198,0,19.796,0c2.86,0,5.726-0.28,8.334,1.481c0.708,0.479,1.962,0.409,2.904,0.242
		c7.825-1.388,15.288-0.305,22.375,3.228c0.405,0.202,0.661,1.496,0.428,2.044c-0.876,2.065-2.498,3.248-4.839,3.248
		c-5.199-0.002-10.398,0.021-15.597-0.026c-0.753-0.006-1.503-0.507-2.254-0.504c-1.462,0.005-2.95,0.075-4.379,0.359
		c-1.594,0.317-3.131,1.299-4.698,1.31c-14.597,0.104-29.194,0.073-43.791,0.055c-4.502-0.005-7.949-5.308-5.814-9.293
		c0.582-1.087,2.508-2.017,3.841-2.049C240.79,384.306,248.69,384.401,256.589,384.401z"/>
	<path fill-rule="evenodd" clip-rule="evenodd" fill="none" stroke="#000000" stroke-miterlimit="10" d="M235.741,312.396
		c9.688,0,19.376-0.074,29.062,0.056c2.207,0.029,4.456,0.592,6.591,1.226c2.087,0.621,4.634,4.407,4.108,6.508
		c-0.321,1.283-1.778,2.404-2.953,3.298c-0.601,0.458-1.707,0.365-2.579,0.336c-4.754-0.157-9.507-0.562-14.257-0.53
		c-15.04,0.099-30.083,0.208-45.115,0.644c-4.097,0.119-7.897-3.007-8.86-6.686c-0.77-2.94,0.46-4.836,3.443-4.844
		C215.368,312.38,225.554,312.396,235.741,312.396z"/>
	<path fill-rule="evenodd" clip-rule="evenodd" fill="none" stroke="#000000" stroke-miterlimit="10" d="M253.593,366.4
		c6.196,0,12.403,0.222,18.587-0.059c7.111-0.323,13.833,1.798,20.746,2.682c2.254,0.289,4.571,0.103,6.817,0.431
		c1.564,0.229,3.087,0.897,4.525,1.585c0.131,0.063-0.22,2.161-0.824,2.528c-1.552,0.944-3.331,1.604-5.099,2.075
		c-1.375,0.365-2.869,0.314-4.313,0.376c-2.22,0.095-4.444,0.112-6.666,0.194c-1.158,0.042-2.33,0.06-3.468,0.251
		c-2.391,0.403-4.761,1.295-7.145,1.316c-14.491,0.126-28.988-0.134-43.473,0.188c-4.125,0.092-7.753-3.433-8.636-7.424
		c-0.504-2.279,1.179-4.123,3.763-4.132C236.802,366.381,245.197,366.4,253.593,366.4z"/>
	<path fill-rule="evenodd" clip-rule="evenodd" fill="none" stroke="#000000" stroke-miterlimit="10" d="M249.815,348.398
		c9.485,0,18.972,0.042,28.457-0.024c3.051-0.021,5.165,1.404,7.007,3.639c0.634,0.769,1.671,1.192,2.458,1.852
		c0.415,0.349,0.994,0.915,0.937,1.3c-0.06,0.402-0.745,0.836-1.243,1.02c-0.716,0.264-1.755,0.051-2.235,0.496
		c-3.531,3.279-7.801,3.23-12.221,3.201c-15.776-0.104-31.554-0.161-47.328,0.026c-5.403,0.064-8.194-4.495-8.755-8.273
		c-0.372-2.506,1.569-3.259,3.867-3.25C230.444,348.419,240.129,348.399,249.815,348.398z"/>
	<path fill-rule="evenodd" clip-rule="evenodd" fill="none" stroke="#000000" stroke-miterlimit="10" d="M231.515,438.406
		c8.8,0,17.6-0.001,26.4,0c4.447,0.001,6.931,1.534,6.922,4.263c-0.012,3.626-3.438,7.094-7.253,7.16
		c-4.699,0.081-9.4,0.02-14.1,0.02c-11.4,0-22.801,0.008-34.201-0.004c-4.736-0.005-7.625-2.143-8.969-6.566
		c-0.9-2.966,0.446-4.85,3.6-4.861C213.114,438.386,222.314,438.407,231.515,438.406z"/>
	<path fill-rule="evenodd" clip-rule="evenodd" fill="none" stroke="#000000" stroke-miterlimit="10" d="M444.335,384.401
		c5.591,0,11.183-0.078,16.771,0.022c5.37,0.096,10.748,0.234,16.1,0.656c1.773,0.14,3.445,1.312,5.214,1.845
		c2.35,0.708,2.527,2.9,2.43,4.493c-0.075,1.208-1.54,2.833-2.778,3.374c-4.242,1.851-8.652,1.444-12.949-0.057
		c-3.061-1.069-5.969-1.382-8.894,0.513c-0.822,0.533-2.065,0.568-3.117,0.573c-9.583,0.04-19.167,0.031-28.75,0.021
		c-4.456-0.005-7.688-4.618-6.166-8.835c0.747-2.07,2.387-2.646,4.471-2.625C432.556,384.44,438.445,384.402,444.335,384.401z"/>
	<path fill-rule="evenodd" clip-rule="evenodd" fill="none" stroke="#000000" stroke-miterlimit="10" d="M326.947,233.831
		c-6.198,0-12.419,0.31-18.584-0.137c-2.879-0.208-5.871-1.507-8.414-2.992c-2.64-1.542-2-3.413,0.723-4.789
		c6.305-3.188,12.962-3.821,19.861-3.556c4.192,0.162,8.398,0.122,12.594,0.01c7.63-0.203,15.189-0.146,22.467,2.73
		c1.281,0.506,2.973,0.33,4.395,0.057c3.341-0.642,5.943,0.253,7.543,3.151c0.252,0.456-0.229,1.91-0.643,2.041
		c-2.202,0.694-4.613,1.833-6.723,1.474c-3.986-0.68-7.576-0.238-11.199,1.33c-1.044,0.452-2.276,0.641-3.425,0.652
		C339.343,233.863,333.145,233.831,326.947,233.831z"/>
	<path fill-rule="evenodd" clip-rule="evenodd" fill="none" stroke="#000000" stroke-miterlimit="10" d="M375.582,576.091
		c-5.849-0.278-11.699-0.513-17.543-0.872c-1.134-0.07-2.495-0.325-3.307-1.016c-2.548-2.167-4.922-1.12-7.417-0.075
		c-3.811,1.597-8.111,0.071-9.809-3.417c-1.531-3.146-0.808-4.712,2.653-5.038c4.678-0.441,9.416-2.274,14.056,0.433
		c0.593,0.346,1.699-0.147,2.557-0.308c2.381-0.445,4.752-1.282,7.137-1.317c10.081-0.149,20.167,0.023,30.248-0.106
		c3.916-0.051,6.144,2.421,8.288,4.979c0.325,0.389-0.605,2.253-1.375,3.01c-0.684,0.672-1.925,0.913-2.961,1.069
		c-7.456,1.129-14.923,2.188-22.386,3.268C375.677,576.497,375.629,576.294,375.582,576.091z"/>
	<path fill-rule="evenodd" clip-rule="evenodd" fill="none" stroke="#000000" stroke-miterlimit="10" d="M362.594,611.863
		c-4.397-0.393-9.469,0.563-14.565-1.527c-2.322-0.951-5.705,0.627-8.594,1.131c-6.15,1.073-12.193,0.275-18.165-1.139
		c-1.253-0.297-2.46-1.267-3.419-2.203c-1.32-1.286-2.378-3.199-0.922-4.696c1.234-1.269,3.048-2.642,5.274-1.272
		c3.076,1.89,6.165,1.729,9.175-0.216c2.288-1.478,4.603-2.012,7.215-0.698c0.822,0.413,1.932,0.387,2.902,0.351
		c3.992-0.146,7.98-0.427,11.972-0.561c7.147-0.241,14.297-0.435,21.447-0.597c1.93-0.043,4.199-0.464,5.063,1.969
		c0.872,2.457-0.813,6.447-2.746,7.871c-2.652,1.951-5.629,1.565-8.576,1.586C366.859,611.873,365.063,611.863,362.594,611.863z"/>
	<path fill-rule="evenodd" clip-rule="evenodd" fill="none" stroke="#000000" stroke-miterlimit="10" d="M328.04,204.021
		c2.419,0.448,6.644,1.895,10.842,1.824c4.423-0.075,8.508,2.941,13.062,1.028c0.915-0.384,2.268,0.326,3.427,0.46
		c2.162,0.249,4.333,0.414,6.493,0.678c0.858,0.104,1.798,0.208,2.511,0.632c0.555,0.33,0.814,1.155,1.206,1.76
		c-0.685,0.167-1.502,0.663-2.03,0.448c-2.338-0.952-4.026-0.074-6.012,1.182c-1.528,0.966-3.917,1.702-5.496,1.199
		c-2.619-0.835-4.412-0.047-6.739,0.832c-3.045,1.149-6.482,1.58-9.772,1.693c-6.979,0.239-13.982,0.297-20.957-0.01
		c-4.278-0.188-8.55-1.044-12.759-1.918c-1.248-0.259-3.078-1.505-3.192-2.471c-0.145-1.225,0.885-3.01,1.959-3.85
		c1.303-1.019,3.145-1.682,4.815-1.837C312.287,205.029,319.198,204.639,328.04,204.021z"/>
	<path fill-rule="evenodd" clip-rule="evenodd" fill="none" stroke="#000000" stroke-miterlimit="10" d="M255.817,402.403
		c6.692,0,13.385-0.048,20.076,0.042c1.327,0.018,2.733,0.37,3.952,0.909c2.938,1.3,3.347,4.419,0.721,6.374
		c-3.222,2.396-6.471,4.379-10.981,4.235c-11.076-0.355-22.17-0.168-33.257-0.073c-2.296,0.019-3.745-0.745-4.664-2.819
		c-1.034-2.333-1.926-4.755,0.01-6.884c0.864-0.95,2.477-1.673,3.769-1.705C242.23,402.315,249.025,402.403,255.817,402.403z"/>
	<path fill-rule="evenodd" clip-rule="evenodd" fill="none" stroke="#000000" stroke-miterlimit="10" d="M255.437,503.854
		c-5.094,0-10.189,0-15.283,0c-0.5,0-1.005,0.051-1.498-0.009c-2.12-0.258-5.008-0.24-5.269-2.648
		c-0.186-1.718,1.296-4.111,2.747-5.403c2.666-2.372,6.039-3.452,9.764-3.412c8.989,0.094,17.98-0.025,26.97,0.082
		c1.597,0.019,3.481,0.294,4.725,1.172c4.393,3.097,3.117,6.585-0.912,8.981c-1.354,0.805-3.154,1.143-4.763,1.184
		C266.427,503.94,260.931,503.854,255.437,503.854z"/>
	<path fill-rule="evenodd" clip-rule="evenodd" fill="none" stroke="#000000" stroke-miterlimit="10" d="M454.146,377.843
		c-6.496,0.013-13.007,0.446-19.202-2.387c-1.312-0.6-3.175-0.047-4.777,0.061c-1.653,0.111-3.32,0.546-4.94,0.397
		c-0.714-0.065-1.879-1.227-1.873-1.882c0.013-1.343,0.268-3.108,1.144-3.946c3.637-3.479,10.063-3.436,13.973-0.117
		c1.377,1.168,2.638,1.25,3.762-0.11c2.452-2.966,5.601-3.643,9.288-3.512c5.682,0.202,11.376,0.032,17.064,0.075
		c0.955,0.007,1.974,0.13,2.852,0.479c3.728,1.482,4.336,3.289,2.022,6.494c-1.986,2.752-4.631,4.513-8.234,4.46
		C461.532,377.801,457.839,377.843,454.146,377.843z"/>
	<path fill-rule="evenodd" clip-rule="evenodd" fill="none" stroke="#000000" stroke-miterlimit="10" d="M374.648,676.95
		c0.002,2.737-2.624,11.931-4.565,12.266c-2.571,0.445-3.229-7.06-4.57-9.156c-1.948-3.047-3.021-2.882-4.739,0.469
		c-1.698,3.31-3.398,17.056-7.09,1.203c-1.966-2.033-3.418-1.509-4.942,0.157c-1.741,7.278-4.241,11.225-6.225,0.192
		c-0.414-2.305-3.207-0.803-4.709,0.063c-4.157,2.395-5.703,13.607-7.649-0.505c-0.366-2.654-3.594-1.002-5.188,0.111
		c-1.894,1.322-7.096,6.75-5.889,0.817c-1.975-1.492-2.842-5.727-1.56-7.879c0.477-0.802,1.863-1.702,2.662-1.563
		c3.74,0.653,7.419,1.651,11.119,2.528c0.473,0.112,1.072,0.489,1.394,0.322c4.807-2.496,10.143-0.923,15.188-1.983
		c4.059-0.854,8.48-1.296,12.691,0.666c3.198,1.49,6.166-0.816,9.226-1.398C373.411,672.573,374.646,673.341,374.648,676.95z"/>
	<path fill-rule="evenodd" clip-rule="evenodd" fill="none" stroke="#000000" stroke-miterlimit="10" d="M250.395,420.405
		c5.394,0,10.796-0.152,16.177,0.114c1.248,0.062,2.837,1.304,3.522,2.451c0.751,1.258-0.058,2.544-1.635,3.246
		c-0.852,0.379-1.603,1.252-2.115,2.079c-1.623,2.618-4.063,3.533-6.943,3.543c-9.091,0.028-18.181,0.016-27.271,0.007
		c-3.673-0.004-5.263-1.979-4.472-5.514c0.769-3.431,3.882-5.917,7.453-5.924C240.205,420.397,245.3,420.405,250.395,420.405z"/>
	<path fill-rule="evenodd" clip-rule="evenodd" fill="none" stroke="#000000" stroke-miterlimit="10" d="M373.25,593.861
		c-1.795,0-3.602-0.124-5.384,0.029c-2.563,0.222-4.564-0.742-5.755-2.873c-0.744-1.331-1.271-1.206-2.513-0.8
		c-4.056,1.329-8.123,2.908-12.307,3.446c-2.5,0.321-5.376-0.789-7.807-1.875c-2.079-0.928-2.123-4.523-0.066-5.459
		c3.154-1.434,6.543-2.862,9.926-3.136c3.407-0.275,6.921,0.942,10.406,1.339c1.301,0.147,2.886,0.227,3.939-0.37
		c2.72-1.54,5.532-1.867,8.554-1.772c3.787,0.118,7.582-0.032,11.37,0.047c3.502,0.073,4.753,2.285,3.025,5.378
		c-2.188,3.918-4.978,6.924-10.103,6.072C375.47,593.71,374.348,593.861,373.25,593.861z"/>
	<path fill-rule="evenodd" clip-rule="evenodd" fill="none" stroke="#000000" stroke-miterlimit="10" d="M360.421,277.254
		c6.104,0.509,12.201,1.263,18.315,1.454c5.242,0.163,10.527-0.695,15.746-0.356c2.617,0.17,5.437,1.583,7.6,3.194
		c2.274,1.692,1.48,4.133-1.339,4.423c-3.584,0.369-7.247,0.432-10.84,0.152c-5.18-0.404-10.316-1.631-15.489-1.751
		c-3.752-0.087-7.518,1.177-11.305,1.594c-2.063,0.227-4.679,0.71-6.177-0.261c-3.403-2.207-6.6-1.358-9.891-0.534
		c-2.414,0.605-3.882-0.328-4.631-2.398c-0.758-2.095,0.415-3.611,2.375-3.964c3.369-0.607,6.8-0.895,10.217-1.186
		c1.783-0.152,3.592-0.027,5.389-0.027C360.402,277.479,360.412,277.367,360.421,277.254z"/>
	<path fill-rule="evenodd" clip-rule="evenodd" fill="none" stroke="#000000" stroke-miterlimit="10" d="M320.043,462.693
		c-0.013,3.024-2.502,5.335-5.447,5.111c-2.851-0.215-5.706-0.368-8.559-0.555c-2.959-0.193-5.924-0.608-8.876-0.535
		c-3.439,0.085-6.885,0.468-10.295,0.953c-3.559,0.508-6.75-0.004-9.094-2.876c-0.497-0.608-0.502-2.197-0.053-2.897
		c1.912-2.983,5.153-4.542,8.351-4.728c7.593-0.439,15.228-0.206,22.845-0.164c2.364,0.013,4.781,0.019,7.076,0.495
		C319.86,458.3,320.06,458.76,320.043,462.693z"/>
	<path fill-rule="evenodd" clip-rule="evenodd" fill="none" stroke="#000000" stroke-miterlimit="10" d="M442.771,402.404
		c3.294-0.001,6.619,0.285,9.873-0.073c4.025-0.443,7.259,1.214,10.525,3.029c2.236,1.242,1.271,3.227,0.102,3.975
		c-2.813,1.8-5.89,4.015-9.025,4.312c-6.825,0.646-13.755,0.17-20.642,0.21c-4.196,0.025-7.181-3.578-7.938-7.407
		c-0.418-2.111,1.353-4.01,3.631-4.032C433.788,402.373,438.279,402.404,442.771,402.404z"/>
	<path fill-rule="evenodd" clip-rule="evenodd" fill="none" stroke="#000000" stroke-miterlimit="10" d="M258.872,510.412
		c4.089,0,8.178-0.006,12.267,0.003c2.969,0.006,5.862,1.821,6.284,3.922c0.475,2.36-1.322,5.361-4.131,6.509
		c-1.327,0.543-2.815,0.943-4.237,0.965c-6.481,0.102-12.964,0.063-19.447,0.022c-0.853-0.006-1.875-0.076-2.527-0.532
		c-3.043-2.13-6.04-4.338-8.939-6.659c-1.513-1.211-1.061-2.548,0.662-2.977c2.453-0.609,4.986-1.085,7.504-1.2
		C250.488,510.272,254.683,510.412,258.872,510.412z"/>
	<path fill-rule="evenodd" clip-rule="evenodd" fill="none" stroke="#000000" stroke-miterlimit="10" d="M487.343,431.847
		c-3.799,0-7.6,0.021-11.399-0.006c-3.302-0.024-4.145-0.928-4.128-4.296c0.023-5.104,2.05-7.14,7.109-7.14
		c6.8,0,13.601-0.011,20.4,0.004c3.767,0.009,6.78,2.356,6.73,5.191c-0.054,3.052-3.352,6.179-6.713,6.232
		C495.344,431.895,491.344,431.847,487.343,431.847z"/>
	<path fill-rule="evenodd" clip-rule="evenodd" fill="none" stroke="#000000" stroke-miterlimit="10" d="M485.787,438.406
		c3.791,0,7.602-0.214,11.365,0.106c1.497,0.127,3.672,1.132,4.133,2.294c0.558,1.407,0.158,3.792-0.771,5.066
		c-1.899,2.604-4.724,4.028-8.161,3.995c-6.885-0.065-13.77-0.003-20.653-0.027c-3.125-0.011-4.649-2.006-3.985-5.042
		c1.032-4.717,3.33-6.785,8.198-6.437C479.188,438.596,482.494,438.406,485.787,438.406z"/>
	<path fill-rule="evenodd" clip-rule="evenodd" fill="none" stroke="#000000" stroke-miterlimit="10" d="M297.251,450.223
		c-2.884-0.528-7.519-1.241-12.07-2.305c-1.123-0.263-2.702-1.614-2.769-2.557c-0.08-1.121,0.971-2.779,2.015-3.439
		c4.013-2.537,8.211-4.323,13.275-3.024c2.258,0.579,4.792,0.086,7.201,0.066c0.188-0.001,0.382-0.179,0.562-0.162
		c4.328,0.42,8.708,0.593,12.946,1.461c1.158,0.237,2.661,2.579,2.649,3.942c-0.022,2.738-2.574,4.029-4.881,4.334
		C310.524,449.288,304.812,449.586,297.251,450.223z"/>
	<path fill-rule="evenodd" clip-rule="evenodd" fill="none" stroke="#000000" stroke-miterlimit="10" d="M232.857,456.409
		c5.389-0.001,10.78-0.086,16.165,0.064c1.219,0.034,3.273,0.699,3.434,1.413c0.293,1.308-0.076,3.333-0.986,4.236
		c-2.788,2.771-6.001,5.021-10.235,5.14c-7.941,0.223-15.759-0.335-23.114-3.666c-1.58-0.715-3.145-1.667-4.383-2.858
		c-0.708-0.681-1.159-2.166-0.93-3.092c0.148-0.597,1.733-1.165,2.685-1.183C221.279,456.355,227.069,456.41,232.857,456.409z"/>
	<path fill-rule="evenodd" clip-rule="evenodd" fill="none" stroke="#000000" stroke-miterlimit="10" d="M474.123,312.396
		c4.291,0,8.583-0.023,12.874,0.007c3.082,0.022,4.527,1.906,3.197,4.684c-2.306,4.811-2.808,7.141-9.525,6.77
		c-5.237-0.289-10.496-0.272-15.724-0.668c-2.4-0.182-7.246-5.57-7.48-7.924c-0.2-2.009,0.947-2.875,2.884-2.871
		C464.94,312.403,469.531,312.396,474.123,312.396z"/>
	<path fill-rule="evenodd" clip-rule="evenodd" fill="none" stroke="#000000" stroke-miterlimit="10" d="M258.968,528.414
		c2.59,0,5.196,0.174,7.767-0.044c3.183-0.271,5.488,1.182,7.577,3.246c2.091,2.064,1.779,4.65-0.902,5.703
		c-3.529,1.386-7.02,2.872-11.046,2.605c-4.463-0.296-8.962-0.067-13.445-0.067c-4.969-0.001-6.613-2.445-4.842-7.198
		c1.221-3.274,2.627-4.237,6.224-4.244C253.19,528.41,256.079,528.414,258.968,528.414z"/>
	<path fill-rule="evenodd" clip-rule="evenodd" fill="none" stroke="#000000" stroke-miterlimit="10" d="M460.12,359.841
		c-2.798,0-5.596,0.031-8.393-0.008c-3.059-0.043-4.863-2.532-4.114-5.598c1.353-5.533,1.733-5.851,7.326-5.833
		c5.913,0.019,11.881-0.588,17.533,2.027c0.896,0.414,2.231-0.179,3.367-0.218c2.092-0.074,4.369-0.266,4.942,2.49
		c0.392,1.889-1.878,4.867-4.04,5.238c-5.486,0.942-11.002,1.726-16.506,2.573C460.197,360.288,460.159,360.065,460.12,359.841z"/>
	<path fill-rule="evenodd" clip-rule="evenodd" fill="none" stroke="#000000" stroke-miterlimit="10" d="M543.85,377.842
		c-2.49,0-4.982-0.054-7.471,0.016c-2.478,0.07-4.121-1.13-5.206-3.214c-1.604-3.082-0.412-5.336,2.96-5.855
		c1.531-0.236,3.017-0.771,4.548-1.011c3.274-0.514,6.554-1.1,9.854-1.329c3.271-0.226,6.571-0.055,9.858-0.048
		c3.853,0.008,4.909,1.484,3.08,4.859c-2.139,3.947-5.567,6.297-10.154,6.557C548.837,377.958,546.34,377.842,543.85,377.842z"/>
	<path fill-rule="evenodd" clip-rule="evenodd" fill="none" stroke="#000000" stroke-miterlimit="10" d="M335.045,570.169
		c-0.001,4.842-1.181,5.589-5.593,5.214c-3.625-0.307-7.319,0.197-10.982,0.351c-5.13,0.214-10.357,0.691-14.565-3.135
		c-2.325-2.114-1.933-3.968,0.929-5.359c1.495-0.727,2.984-1.618,4.577-1.938c1.077-0.217,2.735,0.047,3.422,0.771
		c1.726,1.818,3.084,1.24,4.976,0.333c4.445-2.129,9.175-2.88,13.951-1.198C334.061,566.017,335.649,567.64,335.045,570.169z"/>
	<path fill-rule="evenodd" clip-rule="evenodd" fill="none" stroke="#000000" stroke-miterlimit="10" d="M477.782,456.408
		c3.294,0,6.591,0.077,9.881-0.027c2.115-0.067,3.291,0.93,4.004,2.774c0.833,2.156-0.203,3.917-1.862,4.687
		c-3.067,1.423-6.355,3.096-9.61,3.229c-5.78,0.236-11.618-0.46-17.396-1.091c-1.263-0.138-3.175-1.505-3.347-2.545
		c-0.197-1.185,0.941-2.934,1.989-3.914c2.517-2.356,5.528-3.581,9.161-3.163C472.966,456.628,475.387,456.408,477.782,456.408z"/>
	<path fill-rule="evenodd" clip-rule="evenodd" fill="none" stroke="#000000" stroke-miterlimit="10" d="M452.831,503.854
		c-3.599,0-7.222,0.242-10.786-0.108c-1.634-0.161-3.67-1.139-4.536-2.416c-0.542-0.799,0.532-2.971,1.275-4.307
		c1.539-2.766,4.264-4,7.245-4.274c6.084-0.559,12.305-1.311,17.685,2.621c1.337,0.978,2.511,2.508,3.149,4.038
		c1.119,2.682-0.276,4.413-3.237,4.438C460.027,503.878,456.43,503.854,452.831,503.854z"/>
	<path fill-rule="evenodd" clip-rule="evenodd" fill="none" stroke="#000000" stroke-miterlimit="10" d="M209.614,431.847
		c-2.795,0-5.592-0.04-8.387,0.009c-4.896,0.084-6.906-6.382-5.154-9.322c0.655-1.1,2.56-1.976,3.934-2.035
		c5.382-0.23,10.78-0.131,16.171-0.083c4.833,0.042,7.1,4.955,6.589,8.088c-0.352,2.156-1.854,3.36-4.167,3.346
		C215.605,431.833,212.609,431.847,209.614,431.847z"/>
	<path fill-rule="evenodd" clip-rule="evenodd" fill="none" stroke="#000000" stroke-miterlimit="10" d="M287.692,668.025
		c-1.122-0.297-2.227-2.148-1.808-4.137c-0.294-0.095-0.652-0.536-0.774-0.96c-0.797-2.77,0.512-9.595,2.456-9.554
		c2.747,0.057,5.781,3.046,8.528,3.279c1.462,0.125,2.361,1.525,3.224,3.033c1.109,1.938,7.334,4.47,5.683,4.781
		C302.266,664.985,290.782,667.58,287.692,668.025z"/>
	<path fill-rule="evenodd" clip-rule="evenodd" fill="none" stroke="#000000" stroke-miterlimit="10" d="M302.636,432.271
		c-4.266-0.441-7.112-0.716-9.951-1.047c-0.465-0.055-0.977-0.264-1.339-0.56c-1.637-1.336-3.97-2.262-3.708-4.924
		c0.249-2.539,2.593-2.866,4.384-3.281c3.809-0.883,7.687-1.72,11.571-1.931c2.321-0.126,4.709,0.964,7.065,1.515
		c1.04,0.244,2.087,0.759,3.11,0.713c2.662-0.122,3.122,1.541,3.274,3.586c0.163,2.187-0.433,3.458-3.008,3.786
		C309.784,430.671,305.595,431.694,302.636,432.271z"/>
	<path fill-rule="evenodd" clip-rule="evenodd" fill="none" stroke="#000000" stroke-miterlimit="10" d="M450.813,335.125
		c-0.267-1.993,0.437-4.016,2.779-4.118c1.413-0.061,2.938,1.259,4.313,2.117c0.528,0.33,0.655,1.306,1.184,1.629
		c1.39,0.851,2.948,2.152,4.346,2.045c1.249-0.096,2.918-1.611,3.435-2.891c0.996-2.462,2.438-3.595,5.03-3.525
		c2.391,0.064,4.789,0.096,7.178-0.009c2.494-0.11,3.639,0.839,3.612,3.452c-0.049,4.815-1.625,6.087-6.459,5.715
		c-2.277-0.175-4.87,0.056-6.892,1.011c-4.918,2.323-9.971,1.057-14.945,1.128C452.154,341.713,450.797,338.807,450.813,335.125z"/>
	<path fill-rule="evenodd" clip-rule="evenodd" fill="none" stroke="#000000" stroke-miterlimit="10" d="M207.283,413.846
		c-1.995,0-3.99,0.002-5.985,0c-3.209-0.003-6.465-2.573-6.516-5.139c-0.069-3.523,2.862-6.29,6.7-6.301
		c4.09-0.011,8.18-0.019,12.269,0.003c4.003,0.021,5.502,1.758,5.483,6.284c-0.017,4.079-1.125,5.145-5.369,5.153
		C211.672,413.85,209.478,413.846,207.283,413.846z"/>
	<path fill-rule="evenodd" clip-rule="evenodd" fill="none" stroke="#000000" stroke-miterlimit="10" d="M207.396,395.844
		c-2.192,0-4.386,0.039-6.577-0.009c-3.807-0.082-5.636-2.714-4.427-6.304c1.293-3.839,3.074-5.129,7.086-5.13
		c3.289,0,6.578-0.024,9.866,0.006c3.875,0.037,6.563,2.711,6.486,6.395c-0.06,2.905-2.78,5.031-6.456,5.041
		C211.382,395.849,209.389,395.845,207.396,395.844z"/>
	<path fill-rule="evenodd" clip-rule="evenodd" fill="none" stroke="#000000" stroke-miterlimit="10" d="M454.5,525.5
		c-4.498-0.826-8.086-6.394-13.204-7.613c-1.38-0.328-2.449-1.956-3.661-2.988c1.152-0.96,2.167-2.26,3.491-2.8
		c2.045-0.834,4.288-1.531,6.472-1.609c5.973-0.214,11.959-0.135,17.938-0.044c2.51,0.038,3.771,2.523,2.166,4.349
		C464.844,518.043,459.624,524.929,454.5,525.5z"/>
	<path fill-rule="evenodd" clip-rule="evenodd" fill="none" stroke="#000000" stroke-miterlimit="10" d="M370.331,376.704
		c-3.626-0.262-6.388-0.638-9.146-0.604c-2.131,0.025-4.287,0.425-6.375,0.909c-2.061,5.179-5.316,0.77-5.353-1.394
		c-0.083-4.99-0.021-2.802-8.958-2.552c0.547-2.133,6.214-6.241,9-6.25c2.008-0.007,7.952,0.174,9.923-0.333
		c4.536-1.167,12.598,1.569,15.617,5.408c0.122,0.156,0.286,0.279,0.415,0.432c0.711,0.839,5.337,5.054,6.045,5.896
		c-1.248,0.403-6.953-0.653-8.224-0.34C371.854,378.225,370.951,376.589,370.331,376.704z"/>
	<path fill-rule="evenodd" clip-rule="evenodd" fill="none" stroke="#000000" stroke-miterlimit="10" d="M273.301,700.703
		c-0.554,0.002-2.209-0.142-2.75,0.072c-1.845,0.728-1.284-2.813-1.786-5.813c-0.438-2.62-0.276-5.655,0.847-5.688
		c1.461-0.044,2.924-0.056,4.386,0.003c1.365,0.054,3.159,4.074,3.389,7.487c0.162,2.415,2.618,3.978,1.613,4.108
		C278.054,700.995,274.249,700.7,273.301,700.703z"/>
	<path fill-rule="evenodd" clip-rule="evenodd" fill="none" stroke="#000000" stroke-miterlimit="10" d="M315.115,582.782
		c1.966,0.293,3.802,0.737,5.649,0.793c1.856,0.057,3.769-0.073,5.576-0.482c2.527-0.573,4.904-1.338,7.268,0.572
		c2.504,2.023,2.018,4.977,2.487,7.586c0.094,0.522-1.388,1.896-2.132,1.889c-1.903-0.021-4.18-0.06-5.62-1.069
		c-2.797-1.964-5.327-1.445-8.257-0.737c-2.562,0.619-5.349,0.954-7.938,0.628c-2.509-0.315-4.456-4.904-3.434-7.201
		c0.228-0.513,0.966-0.975,1.553-1.116C311.876,583.256,313.53,583.051,315.115,582.782z"/>
	<path fill-rule="evenodd" clip-rule="evenodd" fill="none" stroke="#000000" stroke-miterlimit="10" d="M445.933,431.848
		c-1.397,0-2.802-0.09-4.19,0.019c-2.89,0.227-3.828-1.543-4.104-3.933c-0.136-1.182-0.082-2.396-0.012-3.589
		c0.159-2.695,1.436-3.985,4.087-3.918c4.446,0.111,8.923,0.092,13.32,0.653c2.141,0.273,4.926,0.908,4.805,4.182
		c-0.117,3.124-2.005,4.813-4.908,5.419c-2.956,0.617-5.939,1.102-8.91,1.644C445.99,432.166,445.962,432.006,445.933,431.848z"/>
	<path fill-rule="evenodd" clip-rule="evenodd" fill="none" stroke="#000000" stroke-miterlimit="10" d="M288.448,648.76
		c-0.978,0.262-1.69-1.262-2.306-3.973c-0.454-2-0.602-4.199-0.26-6.49c0.34-2.276,0.881-1.619,1.402-0.933
		c0.639,0.846,1.253,1.26,1.976,0.849c0.731-0.416,1.545,0.466,2.276,1.36c0.283,0.347,0.618,2.314,0.604,3.485
		c-0.014,1.173,3.159,6.607,2.859,6.942C294.019,651.096,289.454,647.994,288.448,648.76z"/>
	<path fill-rule="evenodd" clip-rule="evenodd" fill="none" stroke="#000000" stroke-miterlimit="10" d="M303.073,414.628
		c-3.955-1.262-7.988-2.332-11.814-3.906c-1.121-0.461-2.149-2.287-2.331-3.61c-0.251-1.82,1.446-2.112,3.033-2.42
		c2.954-0.575,5.822-1.931,8.772-2.089c2.945-0.158,6.133,0.297,8.846,1.395c1.316,0.533,2.34,3.101,2.497,4.838
		c0.182,2.018-3.368,4.846-5.468,4.993c-1.09,0.077-2.189,0.014-3.285,0.014C303.239,414.104,303.156,414.366,303.073,414.628z"/>
	<path fill-rule="evenodd" clip-rule="evenodd" fill="none" stroke="#000000" stroke-miterlimit="10" d="M390.25,679.831
		c-3.063-0.834,5.263-23.081-8.75-15.362c-3.762-1.738,3.532-5.463,6.92-7.786c1.75-1.2,4.048-1.828,6.186-2.177
		c2.232-0.363,4.603-0.037,6.895-0.072c2.223-0.034,3.752,0.911,4.604,2.956c0.968,2.321,2.041,12.812,0.396,15.041
		c-0.592,0.804-2.853-0.163-3.938,0c-1.559,0.235-4.842-0.993-6.438-0.993C396.061,671.669,390.314,679.601,390.25,679.831z"/>
	<path fill-rule="evenodd" clip-rule="evenodd" fill="none" stroke="#000000" stroke-miterlimit="10" d="M274.138,486.336
		c-2.41-0.728-4.822-1.447-7.227-2.188c-0.839-0.259-1.658-0.585-2.491-0.861c-1.172-0.39-2.35-0.761-3.525-1.141
		c1.019-0.985,1.869-2.41,3.087-2.878c4.165-1.602,8.402-3.097,12.727-4.165c2.162-0.534,4.784-0.646,6.83,0.085
		c4.193,1.497,4.485,3.972,0.985,6.746C282.2,483.774,277.503,486.396,274.138,486.336z"/>
	<path fill-rule="evenodd" clip-rule="evenodd" fill="none" stroke="#000000" stroke-miterlimit="10" d="M349.954,297.121
		c3.466,0.289,6.918,0.82,10.366,0.79c2.818-0.025,5.636-1.049,8.445-1.016c2.385,0.028,4.778,0.862,7.123,1.502
		c0.645,0.176,1.128,0.939,1.685,1.433c-0.607,0.608-1.111,1.428-1.841,1.787c-3.645,1.794-7.529,1.947-11.534,1.751
		c-5.053-0.247-9.855-2.168-15.15-1.346c-2.938,0.457-6.219-1.198-9.322-1.994c-0.432-0.11-0.727-0.757-1.084-1.155
		c0.415-0.293,0.807-0.799,1.247-0.846C343.229,297.675,346.579,297.413,349.954,297.121z"/>
	<path fill-rule="evenodd" clip-rule="evenodd" fill="none" stroke="#000000" stroke-miterlimit="10" d="M351.151,522.524
		c-1.99-0.826-4.556-1.272-6.219-2.741c-1.963-1.733-1.965-4.408-0.194-6.643c1.653-2.086,3.957-3.324,6.517-2.604
		c3.838,1.079,7.568,2.584,11.255,4.122c0.833,0.348,1.897,1.671,1.789,2.382c-0.159,1.042-1.103,2.507-2.022,2.794
		C358.841,520.903,355.278,521.566,351.151,522.524z"/>
	<path fill-rule="evenodd" clip-rule="evenodd" fill="none" stroke="#000000" stroke-miterlimit="10" d="M495.333,413.841
		c-1.393,0.005-2.787,0.04-4.179-0.002c-3.704-0.112-5.557-3.345-3.721-6.582c0.475-0.836,1.132-1.762,1.945-2.179
		c3.577-1.833,7.265-3.224,11.439-2.115c3.532,0.938,5.229,2.695,5.22,5.711c-0.006,2.225-2.964,4.868-5.932,5.137
		C498.527,413.955,496.925,413.837,495.333,413.841z"/>
	<path fill-rule="evenodd" clip-rule="evenodd" fill="none" stroke="#000000" stroke-miterlimit="10" d="M497.695,350.878
		c5.535-0.426,11.068-0.885,16.606-1.262c1.79-0.122,3.828-0.142,4.286,2.123c0.451,2.23-0.948,3.467-2.878,4.551
		c-3.802,2.134-7.529,2.587-11.749,1.259c-2.76-0.869-5.795-0.836-8.683-1.347c-0.86-0.152-2.378-0.948-2.33-1.163
		c0.325-1.435,0.748-2.987,1.641-4.1c0.534-0.667,1.976-0.606,3.01-0.874C497.631,350.337,497.663,350.608,497.695,350.878z"/>
	<path fill-rule="evenodd" clip-rule="evenodd" fill="none" stroke="#000000" stroke-miterlimit="10" d="M363.715,349.42
		c1.754,0.349,4.391,0.684,6.909,1.421c2.897,0.848,3.531,3.195,1.353,5.229c-1.132,1.057-2.845,1.925-4.365,2.052
		c-4.563,0.381-9.161,0.368-13.746,0.466c-0.344,0.007-0.782-0.234-1.028-0.499c-1.774-1.91-0.014-7.369,2.609-7.817
		C357.872,349.858,360.351,349.752,363.715,349.42z"/>
	<path fill-rule="evenodd" clip-rule="evenodd" fill="none" stroke="#000000" stroke-miterlimit="10" d="M445.567,438.063
		c2.296,0.408,4.802,0.542,7.081,1.33c3.639,1.259,4.201,5.752,1.007,8.045c-3.546,2.547-7.609,2.945-11.591,1.212
		c-3.978-1.73-5.408-7.534-2.365-9.446C441.215,438.253,443.441,438.434,445.567,438.063z"/>
	<path fill-rule="evenodd" clip-rule="evenodd" fill="none" stroke="#000000" stroke-miterlimit="10" d="M301.4,480.878
		c0.028-3.22,1.739-4.934,5.061-5.285c2.419-0.256,4.82-0.96,7.229-0.954c1.504,0.003,3.493,0.553,4.361,1.604
		c0.729,0.882,0.646,3.087,0.061,4.283c-2.162,4.422-4.317,5.337-9.413,4.751c-0.982-0.112-1.988-0.016-2.982-0.025
		C302.211,485.218,301.37,484.363,301.4,480.878z"/>
	<path fill-rule="evenodd" clip-rule="evenodd" fill="none" stroke="#000000" stroke-miterlimit="10" d="M304.161,503.854
		c-2.915,0.011-7.142-5.033-6.018-7.623c0.536-1.234,2.315-2.167,3.733-2.718c1.691-0.656,3.592-0.792,5.412-1.094
		c4.427-0.731,6.246,3.12,4.5,6.817C310.503,501.958,307.427,503.842,304.161,503.854z"/>
	<path fill-rule="evenodd" clip-rule="evenodd" fill="none" stroke="#000000" stroke-miterlimit="10" d="M293.959,521.854
		c-0.414-0.404-1.736-1.22-2.357-2.403c-1.287-2.451,0.369-7.053,3.018-7.858c2.557-0.779,5.387-1.222,8.031-1.007
		c3.052,0.248,3.756,2.689,1.983,5.413C301.928,520.154,299.165,521.856,293.959,521.854z"/>
	<path fill-rule="evenodd" clip-rule="evenodd" fill="none" stroke="#000000" stroke-miterlimit="10" d="M363.88,628.617
		c-3.909,0.505-5.802-2.436-8.041-4.725c-0.231-0.236-0.125-1.114,0.134-1.469c2.122-2.904,11.766-4.683,14.982-2.82
		c2.757,1.597,2.921,3.622,0.322,5.367c-2.283,1.533-4.676,2.906-7.021,4.351C364.132,629.087,364.006,628.852,363.88,628.617z"/>
	<path fill-rule="evenodd" clip-rule="evenodd" fill="none" stroke="#000000" stroke-miterlimit="10" d="M365.402,392.54
		c-1.49-0.325-2.159-0.47-2.827-0.616c-2.289-0.5-4.37-0.661-6.231,1.395c-1.397,1.542-3.488,2.152-5.327,0.704
		c-2.062-1.623-2.568-5.303-1.43-7.138c1.49-2.402,3.353-2.08,5.591-1.21c1.602,0.623,3.379,0.826,5.096,1.11
		c1.638,0.271,3.295,0.479,4.951,0.58c1.964,0.119,3.221,1.149,2.688,2.989C367.621,391.363,366.059,392.004,365.402,392.54z"/>
	<path fill-rule="evenodd" clip-rule="evenodd" fill="none" stroke="#000000" stroke-miterlimit="10" d="M472.427,407.397
		c0.004-3.862,1.315-5.145,5.236-4.969c1.059,0.047,2.135,0.302,3.151,0.623c5.506,1.737,5.634,2.253,1.814,6.334
		c-0.598,0.639-1.021,1.438-1.573,2.125c-1.4,1.748-3.409,3.145-5.388,2.151c-1.46-0.734-2.249-2.886-3.201-4.488
		C472.203,408.73,472.427,407.998,472.427,407.397z"/>
	<path fill-rule="evenodd" clip-rule="evenodd" fill="none" stroke="#000000" stroke-miterlimit="10" d="M350.494,503.898
		c-1.47-0.472-2.974-0.895-4.422-1.461c-0.368-0.144-0.713-0.707-0.803-1.135c-0.292-1.393,2.944-7.504,4.155-7.996
		c2.44-0.992,5.172,0.227,7.199,3.214c2.705,3.984,2.338,4.994-2.403,6.441C353.01,503.331,351.765,503.583,350.494,503.898z"/>
	<path fill-rule="evenodd" clip-rule="evenodd" fill="none" stroke="#000000" stroke-miterlimit="10" d="M294.928,671.923
		c4.16,0.446,3.498,2.832,4.072,6.828c0.199,1.383,2.14,9.747,1,10.483c-1.068,0.69-2.916-6.226-4.167-6.938
		c-1.552-0.885-2.884-2.495-3.777-4.091c-0.729-1.302-1.216-3.226-0.777-4.525C291.582,672.785,293.649,672.487,294.928,671.923z"/>
	<path fill-rule="evenodd" clip-rule="evenodd" fill="none" stroke="#000000" stroke-miterlimit="10" d="M399.644,647.898
		c-1.75,0.308-3.36-0.591-3.957-2.634c-0.609-2.088,0.434-3.474,2.416-4.457c2.495-1.237,4.43-3.573,7.676-3.225
		c2.935,0.315,3.69,1.677,2.222,4.285C406.21,645.044,404.373,648.053,399.644,647.898z"/>
	<path fill-rule="evenodd" clip-rule="evenodd" fill="none" stroke="#000000" stroke-miterlimit="10" d="M537.263,384.405
		c1.494,0,2.993-0.072,4.481,0.017c2.393,0.142,3.502,1.835,2.147,3.766c-0.89,1.27-2.573,2.538-4.043,2.732
		c-3.474,0.459-6.749-0.766-9.755-2.564c-0.336-0.2-0.579-0.571-0.925-0.737c-0.841-0.403-1.718-0.731-2.58-1.089
		c1.014-0.502,1.982-1.261,3.052-1.453c2.506-0.451,5.06-0.629,7.595-0.918C537.245,384.24,537.254,384.322,537.263,384.405z"/>
	<path fill-rule="evenodd" clip-rule="evenodd" fill="none" stroke="#000000" stroke-miterlimit="10" d="M283.207,621.136
		c3.444-0.033,5.533,2.31,7.797,4.108c1.123,0.893,0.068,3.273-1.716,3.307c-3.489,0.064-7.012-0.235-10.461-0.766
		c-0.775-0.12-1.728-1.772-1.815-2.787c-0.064-0.749,0.987-1.896,1.821-2.351C280.168,621.919,281.737,621.618,283.207,621.136z"/>
	<path fill-rule="evenodd" clip-rule="evenodd" fill="none" stroke="#000000" stroke-miterlimit="10" d="M382.655,701.542
		c-0.713-0.653-2.179-1.365-2.291-2.249c-0.158-1.243,0.372-2.873,1.184-3.867c1.011-1.236,2.562-2.068,3.964-2.938
		c1.496-0.93,2.881-1.339,4.452,0.296c3.123,3.252,2.776,5.17-1.528,6.719C386.698,700.128,384.953,700.732,382.655,701.542z"/>
	<path fill-rule="evenodd" clip-rule="evenodd" fill="none" stroke="#000000" stroke-miterlimit="10" d="M355.484,333.908
		c2.699,0.733,5.606,1.475,8.464,2.375c0.277,0.087,0.543,1.488,0.296,1.716c-0.688,0.633-1.602,1.182-2.511,1.382
		c-2.374,0.522-4.786,0.896-7.197,1.224c-2.112,0.288-4.594-0.251-4.821-2.28c-0.14-1.242,2.157-2.841,3.515-4.115
		C353.633,333.832,354.561,334.011,355.484,333.908z"/>
	<path fill-rule="evenodd" clip-rule="evenodd" fill="none" stroke="#000000" stroke-miterlimit="10" d="M445.222,573.771
		c-4.376-0.312-6.174-1.566-5.767-4.373c0.08-0.55,0.6-1.437,0.985-1.476c3.101-0.309,6.246-2.21,9.304-0.083
		c0.752,0.523,1.601,1.572,1.58,2.358c-0.021,0.798-0.902,1.893-1.69,2.281C448.279,573.146,446.704,573.365,445.222,573.771z"/>
	<path fill-rule="evenodd" clip-rule="evenodd" fill="none" stroke="#000000" stroke-miterlimit="10" d="M316.852,521.841
		c-1.8,0-3.614,0.144-5.394-0.04c-1.746-0.182-2.223-1.205-1.043-2.657c2.484-3.06,10.635-3.186,13.028-0.178
		c0.389,0.488,0.85,1.424,0.641,1.771c-0.327,0.543-1.175,1.014-1.838,1.066c-1.788,0.143-3.595,0.049-5.395,0.049
		C316.852,521.848,316.852,521.845,316.852,521.841z"/>
	<path fill-rule="evenodd" clip-rule="evenodd" fill="none" stroke="#000000" stroke-miterlimit="10" d="M285.311,566.184
		c1.742,0.223,3.498,0.38,5.218,0.713c0.457,0.088,0.809,0.716,1.209,1.096c-0.466,0.222-0.971,0.689-1.39,0.622
		c-1.89-0.308-2.63,0.821-3.293,2.266c-0.397,0.864-0.884,2.189-1.543,2.332c-1.558,0.34-3.583,0.668-4.792-0.052
		c-1.629-0.971-1.297-4.169,0.335-5.399c1.178-0.888,2.675-1.352,4.029-2.005C285.16,565.898,285.235,566.041,285.311,566.184z"/>
	<path fill-rule="evenodd" clip-rule="evenodd" fill="none" stroke="#000000" stroke-miterlimit="10" d="M503.045,391.867
		c-0.146,1.679-1.221,3.121-3.368,3.311c-1.852,0.164-4.874-2.533-4.332-3.966c0.669-1.767-0.422-4.838,2.946-4.981
		C500.466,386.138,503.109,389.101,503.045,391.867z"/>
	<path fill-rule="evenodd" clip-rule="evenodd" fill="none" stroke="#000000" stroke-miterlimit="10" d="M376.327,521.843
		c-1.396,0.002-2.799,0.096-4.185-0.024c-1.335-0.115-2.831-0.639-2.23-2.287c0.372-1.021,1.801-2.466,2.604-2.375
		c2.908,0.325,5.767,1.171,8.609,1.945c0.515,0.141,0.868,0.874,1.295,1.332c-0.535,0.469-1.028,1.264-1.616,1.342
		C379.335,521.971,377.822,521.84,376.327,521.843z"/>
	<path fill-rule="evenodd" clip-rule="evenodd" fill="none" stroke="#000000" stroke-miterlimit="10" d="M350.652,406.994
		c0.937-1.061,1.756-2.675,3.041-3.251c1.292-0.58,4.131,2.877,4.144,4.66c0.013,1.871-2.114,4.406-3.806,4.195
		C351.056,412.228,351.87,409.468,350.652,406.994z"/>
	<path fill-rule="evenodd" clip-rule="evenodd" fill="none" stroke="#000000" stroke-miterlimit="10" d="M341.688,624.032
		c1.205-1.046,2.261-2.449,3.658-3.027c1.163-0.481,4.484,3.379,3.942,4.796c-0.453,1.184-1.931,2.394-3.191,2.746
		C344.417,629.017,342.162,626.442,341.688,624.032z"/>
	<path fill-rule="evenodd" clip-rule="evenodd" fill="none" stroke="#000000" stroke-miterlimit="10" d="M278.001,588.213
		c-0.021-1.756,2.277-4.276,4.042-3.847c1.034,0.252,2.218,1.763,2.476,2.902c0.419,1.847-1.771,4.688-3.158,4.769
		C279.715,592.132,278.024,590.209,278.001,588.213z"/>
	<path fill-rule="evenodd" clip-rule="evenodd" fill="none" stroke="#000000" stroke-miterlimit="10" d="M354.492,442.726
		c-0.547,2.858-0.433,5.505-3.048,5.49c-0.864-0.005-2.466-2.864-2.357-4.315c0.111-1.487,1.903-2.848,2.96-4.264
		C352.975,440.809,353.902,441.98,354.492,442.726z"/>
	<path fill-rule="evenodd" clip-rule="evenodd" fill="none" stroke="#000000" stroke-miterlimit="10" d="M349.425,479.742
		c0-0.495-0.182-1.1,0.037-1.464c0.513-0.855,1.09-1.842,1.905-2.269c0.34-0.177,1.477,0.836,2.024,1.496
		c0.456,0.549,0.812,1.375,0.809,2.076c-0.007,1.968,0.567,4.856-2.236,4.885C349.531,484.491,349.387,481.83,349.425,479.742z"/>
	<path fill-rule="evenodd" clip-rule="evenodd" fill="none" stroke="#000000" stroke-miterlimit="10" d="M353.658,462.402
		c-1.002,1.392-2.155,4.031-2.978,3.932c-2.18-0.263-2.61-2.537-2.457-4.615c0.048-0.655,0.149-1.418,0.52-1.913
		c0.612-0.819,1.462-1.46,2.211-2.177c0.688,0.852,1.477,1.644,2.019,2.58c0.258,0.443,0.045,1.16,0.045,1.752
		C353.23,462.108,353.445,462.255,353.658,462.402z"/>
	<path fill-rule="evenodd" clip-rule="evenodd" fill="none" stroke="#000000" stroke-miterlimit="10" d="M351.126,425.996
		c0.886-1.508,1.488-2.86,2.422-3.918c0.271-0.307,2.111,0.095,2.176,0.398c0.303,1.424,0.616,3.047,0.193,4.364
		c-0.382,1.188-1.712,2.07-2.623,3.087C352.63,428.723,351.967,427.52,351.126,425.996z"/>
	<path fill-rule="evenodd" clip-rule="evenodd" fill="none" stroke="#000000" stroke-miterlimit="10" d="M334.1,624.595
		c-2.113,1.205-3.293,2.32-4.598,2.49c-1.209,0.156-2.708-0.455-3.797-1.162c-1.825-1.187-3.423-2.719-5.117-4.104
		c2.668-0.378,5.383-1.224,7.985-0.962C330.196,621.021,331.65,622.856,334.1,624.595z"/>
	<path fill-rule="evenodd" clip-rule="evenodd" fill="none" stroke="#000000" stroke-miterlimit="10" d="M415.184,698.341
		c-1.433,0.768-2.836,1.61-4.344,2.182c-0.143,0.055-1.535-1.857-1.3-2.407c0.556-1.298,0.563-17.697,1.765-18.281
		c0.497-0.241,2.957,16.498,3.979,17.337C415.251,697.561,415.217,697.951,415.184,698.341z"/>
	<path fill-rule="evenodd" clip-rule="evenodd" fill="none" stroke="#000000" stroke-miterlimit="10" d="M341.688,636.071
		c1.224-0.805,1.97-1.69,2.67-1.655c0.887,0.043,1.736,0.835,2.602,1.305c-0.703,0.893-1.284,2.316-2.145,2.513
		C344.111,638.394,343.073,637.09,341.688,636.071z"/>
	<path fill-rule="evenodd" clip-rule="evenodd" fill="none" stroke="#000000" stroke-miterlimit="10" d="M496.65,371.575
		c2.611-0.884,4.133-1.879,5.31-1.695c2.258,0.352,4.323,1.372,6.47,2.116c-1.777,0.844-3.519,2.288-5.346,2.352
		C501.426,374.405,499.667,372.957,496.65,371.575z"/>
	<path fill-rule="evenodd" clip-rule="evenodd" fill="none" stroke="#000000" stroke-miterlimit="10" d="M314.521,409.336
		c-0.071,0.063-0.144,0.177-0.211,0.173c-0.066-0.003-0.179-0.129-0.174-0.196c0.004-0.067,0.126-0.126,0.197-0.189
		C314.396,409.195,314.458,409.266,314.521,409.336z"/>
	<path fill-rule="evenodd" clip-rule="evenodd" fill="none" stroke="#000000" stroke-miterlimit="10" d="M367.826,709.377
		c1.101-0.79-2.215-6.888-3.908-7.436c1.035-2.177-0.857,4.358-2.481,4.844c-1.367,0.409-4.138,1.016-4.451,0.041
		c-1.669-5.179-2.996-1.063-6.563-0.186c-1.289,0.318-3.684,0.869-4.04,0.023c-1.701-4.049-3.847-2.601-5.34,0.07
		c-1.308,0.611-2.554,0.804-4.241,0.058c-3.167-5.817-4.626-0.772-6.083,0.441c-1.475,1.229-2.395,1.29-4.067,0.172
		c-1.15-0.769-2.614-2.905-3.334-6.503c-1.666,0.123-4.505,6.64-4.504,7.645l-5.781,0.005c-2.993-0.787-4.999,0.387-6.258,3.423
		c-1.038,2.501-2.241,2.976-4.856,1.824c-6.732-2.966-13.171-7.065-19.864-5.368c-3.722,0-9.597,0.052-12.092-0.015
		c-2.555-0.068,0.746,4.245,1.287,6.459c1.375,5.625,1.25,5.033,7.684,4.995c6.391,0.009,12.783,0.059,19.173-0.024
		c2.659-0.034,5.32-0.31,7.97-0.576c3.421-0.344,6.824-0.908,10.25-1.152c0,0,5.173,1.383,6.048,0.633s1.875-4.824,4.25-4.787
		s7.75,0.209,7.75,0.209s9.233-0.422,9.054,1.828s0.696,5.75,0.696,5.75s2.625,0,2.875-2.375s2.875-5.203,2.875-5.203
		s5.375-1.047,6-0.672s7.75,1.392,7.75,1.392s2.967,5.97,4.421,4.977s3.917-4.29,11.186-0.642c0.331,0.238,0.989,0.117,1.474,0.033
		c2.792-0.482,5.562-1.14,8.37-1.473c2.363-0.28,5.288-1.101,7.05-0.088c3.617,2.077,7.249,2.301,11.113,2.17
		c1.897,0,3.801,0.099,5.69-0.025c2.455-0.161,4.159-1.762,4.665-3.919c0.334-1.42-0.018-3.858-0.993-4.577
		c-4.089-3.015-7.092-4.176-12.143-1.287c-2.522,1.442-5.164,2.743-7.886,3.74c-1.001,0.365-2.663,0.048-3.556-0.602
		c-5.438-3.957-11.356-5.165-17.911-3.845L367.826,709.377z"/>
	<path fill-rule="evenodd" clip-rule="evenodd" fill="none" stroke="#000000" stroke-miterlimit="10" d="M631.649,123.979
		c-2.698,0.007-5.397,0.021-8.096,0.021c-185.719,0-371.438,0-557.155,0c-1.6,0-3.199-0.014-4.799-0.021c0-3.8,0-7.601,0-11.401
		c1.6-0.007,3.199-0.02,4.799-0.02c185.518-0.002,371.036-0.002,556.555,0c2.899,0,5.798,0.013,8.696,0.02
		C631.649,116.379,631.649,120.18,631.649,123.979z"/>
	<path fill-rule="evenodd" clip-rule="evenodd" fill="none" stroke="#000000" stroke-miterlimit="10" d="M630.943,100.979
		c-2.698,0.007-5.397,0.021-8.096,0.021c-185.719,0-371.438,0-557.155,0c-1.6,0-3.199-0.014-4.799-0.021c0-3.8,0-7.601,0-11.401
		c1.6-0.007,3.199-0.02,4.799-0.02c185.518-0.002,371.036-0.002,556.555,0c2.899,0,5.798,0.013,8.696,0.02
		C630.943,93.379,630.943,97.18,630.943,100.979z"/>
	<path fill-rule="evenodd" clip-rule="evenodd" fill="none" stroke="#000000" stroke-miterlimit="10" d="M632.275,73.979
		C629.577,73.986,626.878,74,624.18,74c-185.719,0-371.438,0-557.155,0c-1.6,0-3.199-0.014-4.799-0.021c0-3.8,0-7.601,0-11.401
		c1.6-0.007,3.199-0.02,4.799-0.02c185.518-0.002,371.036-0.002,556.555,0c2.899,0,5.798,0.013,8.696,0.02
		C632.275,66.379,632.275,70.18,632.275,73.979z"/>
	<path fill-rule="evenodd" clip-rule="evenodd" fill="none" stroke="#000000" stroke-miterlimit="10" d="M62.56,800.021
		c2.698-0.007,5.397-0.021,8.096-0.021c185.719,0,371.438,0,557.156,0c1.6,0,3.199,0.014,4.799,0.021c0,3.8,0,7.601,0,11.401
		c-1.6,0.007-3.199,0.02-4.799,0.02c-185.519,0.002-371.037,0.002-556.555,0c-2.899,0-5.798-0.013-8.696-0.02
		C62.56,807.621,62.56,803.82,62.56,800.021z"/>
	<path fill-rule="evenodd" clip-rule="evenodd" fill="none" stroke="#000000" stroke-miterlimit="10" d="M63.266,823.021
		c2.698-0.007,5.397-0.021,8.096-0.021c185.719,0,371.437,0,557.155,0c1.6,0,3.199,0.014,4.799,0.021c0,3.8,0,7.601,0,11.401
		c-1.6,0.007-3.199,0.02-4.799,0.02c-185.517,0.002-371.036,0.002-556.554,0c-2.899,0-5.798-0.012-8.696-0.02
		C63.266,830.621,63.266,826.82,63.266,823.021z"/>
	<path fill-rule="evenodd" clip-rule="evenodd" fill="none" stroke="#000000" stroke-miterlimit="10" d="M61.934,850.021
		c2.698-0.007,5.397-0.021,8.096-0.021c185.719,0,371.437,0,557.155,0c1.6,0,3.199,0.014,4.799,0.021c0,3.8,0,7.601,0,11.401
		c-1.6,0.007-3.199,0.02-4.799,0.02c-185.517,0.002-371.036,0.002-556.554,0c-2.899,0-5.798-0.013-8.696-0.02
		C61.934,857.621,61.934,853.82,61.934,850.021z"/>
</g>
<rect x="27" y="31" fill-rule="evenodd" clip-rule="evenodd" fill="none" stroke="#ED1C24" stroke-miterlimit="10" width="645" height="863"/>
</svg>
